%TF.GenerationSoftware,KiCad,Pcbnew,7.0.10*%
%TF.CreationDate,2024-01-21T01:18:24-08:00*%
%TF.ProjectId,caribou_slime,63617269-626f-4755-9f73-6c696d652e6b,rev?*%
%TF.SameCoordinates,Original*%
%TF.FileFunction,Legend,Top*%
%TF.FilePolarity,Positive*%
%FSLAX46Y46*%
G04 Gerber Fmt 4.6, Leading zero omitted, Abs format (unit mm)*
G04 Created by KiCad (PCBNEW 7.0.10) date 2024-01-21 01:18:24*
%MOMM*%
%LPD*%
G01*
G04 APERTURE LIST*
%ADD10C,0.150000*%
%ADD11C,0.100000*%
%ADD12C,0.127000*%
%ADD13C,0.200000*%
%ADD14C,0.120000*%
G04 APERTURE END LIST*
D10*
X41783095Y-45428819D02*
X41783095Y-46238342D01*
X41783095Y-46238342D02*
X41830714Y-46333580D01*
X41830714Y-46333580D02*
X41878333Y-46381200D01*
X41878333Y-46381200D02*
X41973571Y-46428819D01*
X41973571Y-46428819D02*
X42164047Y-46428819D01*
X42164047Y-46428819D02*
X42259285Y-46381200D01*
X42259285Y-46381200D02*
X42306904Y-46333580D01*
X42306904Y-46333580D02*
X42354523Y-46238342D01*
X42354523Y-46238342D02*
X42354523Y-45428819D01*
X43354523Y-46428819D02*
X42783095Y-46428819D01*
X43068809Y-46428819D02*
X43068809Y-45428819D01*
X43068809Y-45428819D02*
X42973571Y-45571676D01*
X42973571Y-45571676D02*
X42878333Y-45666914D01*
X42878333Y-45666914D02*
X42783095Y-45714533D01*
X34402143Y-47556009D02*
X34735476Y-47556009D01*
X34878333Y-48079819D02*
X34402143Y-48079819D01*
X34402143Y-48079819D02*
X34402143Y-47079819D01*
X34402143Y-47079819D02*
X34878333Y-47079819D01*
X35259286Y-48032200D02*
X35402143Y-48079819D01*
X35402143Y-48079819D02*
X35640238Y-48079819D01*
X35640238Y-48079819D02*
X35735476Y-48032200D01*
X35735476Y-48032200D02*
X35783095Y-47984580D01*
X35783095Y-47984580D02*
X35830714Y-47889342D01*
X35830714Y-47889342D02*
X35830714Y-47794104D01*
X35830714Y-47794104D02*
X35783095Y-47698866D01*
X35783095Y-47698866D02*
X35735476Y-47651247D01*
X35735476Y-47651247D02*
X35640238Y-47603628D01*
X35640238Y-47603628D02*
X35449762Y-47556009D01*
X35449762Y-47556009D02*
X35354524Y-47508390D01*
X35354524Y-47508390D02*
X35306905Y-47460771D01*
X35306905Y-47460771D02*
X35259286Y-47365533D01*
X35259286Y-47365533D02*
X35259286Y-47270295D01*
X35259286Y-47270295D02*
X35306905Y-47175057D01*
X35306905Y-47175057D02*
X35354524Y-47127438D01*
X35354524Y-47127438D02*
X35449762Y-47079819D01*
X35449762Y-47079819D02*
X35687857Y-47079819D01*
X35687857Y-47079819D02*
X35830714Y-47127438D01*
X36259286Y-48079819D02*
X36259286Y-47079819D01*
X36259286Y-47079819D02*
X36640238Y-47079819D01*
X36640238Y-47079819D02*
X36735476Y-47127438D01*
X36735476Y-47127438D02*
X36783095Y-47175057D01*
X36783095Y-47175057D02*
X36830714Y-47270295D01*
X36830714Y-47270295D02*
X36830714Y-47413152D01*
X36830714Y-47413152D02*
X36783095Y-47508390D01*
X36783095Y-47508390D02*
X36735476Y-47556009D01*
X36735476Y-47556009D02*
X36640238Y-47603628D01*
X36640238Y-47603628D02*
X36259286Y-47603628D01*
X37164048Y-47079819D02*
X37783095Y-47079819D01*
X37783095Y-47079819D02*
X37449762Y-47460771D01*
X37449762Y-47460771D02*
X37592619Y-47460771D01*
X37592619Y-47460771D02*
X37687857Y-47508390D01*
X37687857Y-47508390D02*
X37735476Y-47556009D01*
X37735476Y-47556009D02*
X37783095Y-47651247D01*
X37783095Y-47651247D02*
X37783095Y-47889342D01*
X37783095Y-47889342D02*
X37735476Y-47984580D01*
X37735476Y-47984580D02*
X37687857Y-48032200D01*
X37687857Y-48032200D02*
X37592619Y-48079819D01*
X37592619Y-48079819D02*
X37306905Y-48079819D01*
X37306905Y-48079819D02*
X37211667Y-48032200D01*
X37211667Y-48032200D02*
X37164048Y-47984580D01*
X38164048Y-47175057D02*
X38211667Y-47127438D01*
X38211667Y-47127438D02*
X38306905Y-47079819D01*
X38306905Y-47079819D02*
X38545000Y-47079819D01*
X38545000Y-47079819D02*
X38640238Y-47127438D01*
X38640238Y-47127438D02*
X38687857Y-47175057D01*
X38687857Y-47175057D02*
X38735476Y-47270295D01*
X38735476Y-47270295D02*
X38735476Y-47365533D01*
X38735476Y-47365533D02*
X38687857Y-47508390D01*
X38687857Y-47508390D02*
X38116429Y-48079819D01*
X38116429Y-48079819D02*
X38735476Y-48079819D01*
X39164048Y-47698866D02*
X39925953Y-47698866D01*
X40973571Y-47984580D02*
X40925952Y-48032200D01*
X40925952Y-48032200D02*
X40783095Y-48079819D01*
X40783095Y-48079819D02*
X40687857Y-48079819D01*
X40687857Y-48079819D02*
X40545000Y-48032200D01*
X40545000Y-48032200D02*
X40449762Y-47936961D01*
X40449762Y-47936961D02*
X40402143Y-47841723D01*
X40402143Y-47841723D02*
X40354524Y-47651247D01*
X40354524Y-47651247D02*
X40354524Y-47508390D01*
X40354524Y-47508390D02*
X40402143Y-47317914D01*
X40402143Y-47317914D02*
X40449762Y-47222676D01*
X40449762Y-47222676D02*
X40545000Y-47127438D01*
X40545000Y-47127438D02*
X40687857Y-47079819D01*
X40687857Y-47079819D02*
X40783095Y-47079819D01*
X40783095Y-47079819D02*
X40925952Y-47127438D01*
X40925952Y-47127438D02*
X40973571Y-47175057D01*
X41306905Y-47079819D02*
X41925952Y-47079819D01*
X41925952Y-47079819D02*
X41592619Y-47460771D01*
X41592619Y-47460771D02*
X41735476Y-47460771D01*
X41735476Y-47460771D02*
X41830714Y-47508390D01*
X41830714Y-47508390D02*
X41878333Y-47556009D01*
X41878333Y-47556009D02*
X41925952Y-47651247D01*
X41925952Y-47651247D02*
X41925952Y-47889342D01*
X41925952Y-47889342D02*
X41878333Y-47984580D01*
X41878333Y-47984580D02*
X41830714Y-48032200D01*
X41830714Y-48032200D02*
X41735476Y-48079819D01*
X41735476Y-48079819D02*
X41449762Y-48079819D01*
X41449762Y-48079819D02*
X41354524Y-48032200D01*
X41354524Y-48032200D02*
X41306905Y-47984580D01*
X42116429Y-48175057D02*
X42878333Y-48175057D01*
X43068810Y-48032200D02*
X43211667Y-48079819D01*
X43211667Y-48079819D02*
X43449762Y-48079819D01*
X43449762Y-48079819D02*
X43545000Y-48032200D01*
X43545000Y-48032200D02*
X43592619Y-47984580D01*
X43592619Y-47984580D02*
X43640238Y-47889342D01*
X43640238Y-47889342D02*
X43640238Y-47794104D01*
X43640238Y-47794104D02*
X43592619Y-47698866D01*
X43592619Y-47698866D02*
X43545000Y-47651247D01*
X43545000Y-47651247D02*
X43449762Y-47603628D01*
X43449762Y-47603628D02*
X43259286Y-47556009D01*
X43259286Y-47556009D02*
X43164048Y-47508390D01*
X43164048Y-47508390D02*
X43116429Y-47460771D01*
X43116429Y-47460771D02*
X43068810Y-47365533D01*
X43068810Y-47365533D02*
X43068810Y-47270295D01*
X43068810Y-47270295D02*
X43116429Y-47175057D01*
X43116429Y-47175057D02*
X43164048Y-47127438D01*
X43164048Y-47127438D02*
X43259286Y-47079819D01*
X43259286Y-47079819D02*
X43497381Y-47079819D01*
X43497381Y-47079819D02*
X43640238Y-47127438D01*
X44068810Y-47079819D02*
X44068810Y-47889342D01*
X44068810Y-47889342D02*
X44116429Y-47984580D01*
X44116429Y-47984580D02*
X44164048Y-48032200D01*
X44164048Y-48032200D02*
X44259286Y-48079819D01*
X44259286Y-48079819D02*
X44449762Y-48079819D01*
X44449762Y-48079819D02*
X44545000Y-48032200D01*
X44545000Y-48032200D02*
X44592619Y-47984580D01*
X44592619Y-47984580D02*
X44640238Y-47889342D01*
X44640238Y-47889342D02*
X44640238Y-47079819D01*
X45116429Y-48079819D02*
X45116429Y-47079819D01*
X45116429Y-47079819D02*
X45497381Y-47079819D01*
X45497381Y-47079819D02*
X45592619Y-47127438D01*
X45592619Y-47127438D02*
X45640238Y-47175057D01*
X45640238Y-47175057D02*
X45687857Y-47270295D01*
X45687857Y-47270295D02*
X45687857Y-47413152D01*
X45687857Y-47413152D02*
X45640238Y-47508390D01*
X45640238Y-47508390D02*
X45592619Y-47556009D01*
X45592619Y-47556009D02*
X45497381Y-47603628D01*
X45497381Y-47603628D02*
X45116429Y-47603628D01*
X46116429Y-47556009D02*
X46449762Y-47556009D01*
X46592619Y-48079819D02*
X46116429Y-48079819D01*
X46116429Y-48079819D02*
X46116429Y-47079819D01*
X46116429Y-47079819D02*
X46592619Y-47079819D01*
X47592619Y-48079819D02*
X47259286Y-47603628D01*
X47021191Y-48079819D02*
X47021191Y-47079819D01*
X47021191Y-47079819D02*
X47402143Y-47079819D01*
X47402143Y-47079819D02*
X47497381Y-47127438D01*
X47497381Y-47127438D02*
X47545000Y-47175057D01*
X47545000Y-47175057D02*
X47592619Y-47270295D01*
X47592619Y-47270295D02*
X47592619Y-47413152D01*
X47592619Y-47413152D02*
X47545000Y-47508390D01*
X47545000Y-47508390D02*
X47497381Y-47556009D01*
X47497381Y-47556009D02*
X47402143Y-47603628D01*
X47402143Y-47603628D02*
X47021191Y-47603628D01*
X48021191Y-48079819D02*
X48021191Y-47079819D01*
X48021191Y-47079819D02*
X48354524Y-47794104D01*
X48354524Y-47794104D02*
X48687857Y-47079819D01*
X48687857Y-47079819D02*
X48687857Y-48079819D01*
X49164048Y-48079819D02*
X49164048Y-47079819D01*
X49640238Y-48079819D02*
X49640238Y-47079819D01*
X49640238Y-47079819D02*
X50211666Y-48079819D01*
X50211666Y-48079819D02*
X50211666Y-47079819D01*
X50687857Y-48079819D02*
X50687857Y-47079819D01*
X46482095Y-49937200D02*
X46624952Y-49984819D01*
X46624952Y-49984819D02*
X46863047Y-49984819D01*
X46863047Y-49984819D02*
X46958285Y-49937200D01*
X46958285Y-49937200D02*
X47005904Y-49889580D01*
X47005904Y-49889580D02*
X47053523Y-49794342D01*
X47053523Y-49794342D02*
X47053523Y-49699104D01*
X47053523Y-49699104D02*
X47005904Y-49603866D01*
X47005904Y-49603866D02*
X46958285Y-49556247D01*
X46958285Y-49556247D02*
X46863047Y-49508628D01*
X46863047Y-49508628D02*
X46672571Y-49461009D01*
X46672571Y-49461009D02*
X46577333Y-49413390D01*
X46577333Y-49413390D02*
X46529714Y-49365771D01*
X46529714Y-49365771D02*
X46482095Y-49270533D01*
X46482095Y-49270533D02*
X46482095Y-49175295D01*
X46482095Y-49175295D02*
X46529714Y-49080057D01*
X46529714Y-49080057D02*
X46577333Y-49032438D01*
X46577333Y-49032438D02*
X46672571Y-48984819D01*
X46672571Y-48984819D02*
X46910666Y-48984819D01*
X46910666Y-48984819D02*
X47053523Y-49032438D01*
X48005904Y-49984819D02*
X47434476Y-49984819D01*
X47720190Y-49984819D02*
X47720190Y-48984819D01*
X47720190Y-48984819D02*
X47624952Y-49127676D01*
X47624952Y-49127676D02*
X47529714Y-49222914D01*
X47529714Y-49222914D02*
X47434476Y-49270533D01*
D11*
X62630830Y-40338202D02*
X61821307Y-40338202D01*
X61821307Y-40338202D02*
X61726069Y-40385821D01*
X61726069Y-40385821D02*
X61678450Y-40433440D01*
X61678450Y-40433440D02*
X61630830Y-40528678D01*
X61630830Y-40528678D02*
X61630830Y-40719154D01*
X61630830Y-40719154D02*
X61678450Y-40814392D01*
X61678450Y-40814392D02*
X61726069Y-40862011D01*
X61726069Y-40862011D02*
X61821307Y-40909630D01*
X61821307Y-40909630D02*
X62630830Y-40909630D01*
X62630830Y-41290583D02*
X62630830Y-41909630D01*
X62630830Y-41909630D02*
X62249878Y-41576297D01*
X62249878Y-41576297D02*
X62249878Y-41719154D01*
X62249878Y-41719154D02*
X62202259Y-41814392D01*
X62202259Y-41814392D02*
X62154640Y-41862011D01*
X62154640Y-41862011D02*
X62059402Y-41909630D01*
X62059402Y-41909630D02*
X61821307Y-41909630D01*
X61821307Y-41909630D02*
X61726069Y-41862011D01*
X61726069Y-41862011D02*
X61678450Y-41814392D01*
X61678450Y-41814392D02*
X61630830Y-41719154D01*
X61630830Y-41719154D02*
X61630830Y-41433440D01*
X61630830Y-41433440D02*
X61678450Y-41338202D01*
X61678450Y-41338202D02*
X61726069Y-41290583D01*
X60675830Y-37451134D02*
X60675830Y-38022562D01*
X59675830Y-37736848D02*
X60675830Y-37736848D01*
X59675830Y-38355896D02*
X60675830Y-38355896D01*
X60675830Y-38355896D02*
X60675830Y-38736848D01*
X60675830Y-38736848D02*
X60628211Y-38832086D01*
X60628211Y-38832086D02*
X60580592Y-38879705D01*
X60580592Y-38879705D02*
X60485354Y-38927324D01*
X60485354Y-38927324D02*
X60342497Y-38927324D01*
X60342497Y-38927324D02*
X60247259Y-38879705D01*
X60247259Y-38879705D02*
X60199640Y-38832086D01*
X60199640Y-38832086D02*
X60152021Y-38736848D01*
X60152021Y-38736848D02*
X60152021Y-38355896D01*
X60342497Y-39784467D02*
X59675830Y-39784467D01*
X60723450Y-39546372D02*
X60009164Y-39308277D01*
X60009164Y-39308277D02*
X60009164Y-39927324D01*
X60675830Y-40498753D02*
X60675830Y-40593991D01*
X60675830Y-40593991D02*
X60628211Y-40689229D01*
X60628211Y-40689229D02*
X60580592Y-40736848D01*
X60580592Y-40736848D02*
X60485354Y-40784467D01*
X60485354Y-40784467D02*
X60294878Y-40832086D01*
X60294878Y-40832086D02*
X60056783Y-40832086D01*
X60056783Y-40832086D02*
X59866307Y-40784467D01*
X59866307Y-40784467D02*
X59771069Y-40736848D01*
X59771069Y-40736848D02*
X59723450Y-40689229D01*
X59723450Y-40689229D02*
X59675830Y-40593991D01*
X59675830Y-40593991D02*
X59675830Y-40498753D01*
X59675830Y-40498753D02*
X59723450Y-40403515D01*
X59723450Y-40403515D02*
X59771069Y-40355896D01*
X59771069Y-40355896D02*
X59866307Y-40308277D01*
X59866307Y-40308277D02*
X60056783Y-40260658D01*
X60056783Y-40260658D02*
X60294878Y-40260658D01*
X60294878Y-40260658D02*
X60485354Y-40308277D01*
X60485354Y-40308277D02*
X60580592Y-40355896D01*
X60580592Y-40355896D02*
X60628211Y-40403515D01*
X60628211Y-40403515D02*
X60675830Y-40498753D01*
X60342497Y-41689229D02*
X59675830Y-41689229D01*
X60723450Y-41451134D02*
X60009164Y-41213039D01*
X60009164Y-41213039D02*
X60009164Y-41832086D01*
X60675830Y-42641610D02*
X60675830Y-42451134D01*
X60675830Y-42451134D02*
X60628211Y-42355896D01*
X60628211Y-42355896D02*
X60580592Y-42308277D01*
X60580592Y-42308277D02*
X60437735Y-42213039D01*
X60437735Y-42213039D02*
X60247259Y-42165420D01*
X60247259Y-42165420D02*
X59866307Y-42165420D01*
X59866307Y-42165420D02*
X59771069Y-42213039D01*
X59771069Y-42213039D02*
X59723450Y-42260658D01*
X59723450Y-42260658D02*
X59675830Y-42355896D01*
X59675830Y-42355896D02*
X59675830Y-42546372D01*
X59675830Y-42546372D02*
X59723450Y-42641610D01*
X59723450Y-42641610D02*
X59771069Y-42689229D01*
X59771069Y-42689229D02*
X59866307Y-42736848D01*
X59866307Y-42736848D02*
X60104402Y-42736848D01*
X60104402Y-42736848D02*
X60199640Y-42689229D01*
X60199640Y-42689229D02*
X60247259Y-42641610D01*
X60247259Y-42641610D02*
X60294878Y-42546372D01*
X60294878Y-42546372D02*
X60294878Y-42355896D01*
X60294878Y-42355896D02*
X60247259Y-42260658D01*
X60247259Y-42260658D02*
X60199640Y-42213039D01*
X60199640Y-42213039D02*
X60104402Y-42165420D01*
D10*
X37298381Y-50731009D02*
X37441238Y-50778628D01*
X37441238Y-50778628D02*
X37488857Y-50826247D01*
X37488857Y-50826247D02*
X37536476Y-50921485D01*
X37536476Y-50921485D02*
X37536476Y-51064342D01*
X37536476Y-51064342D02*
X37488857Y-51159580D01*
X37488857Y-51159580D02*
X37441238Y-51207200D01*
X37441238Y-51207200D02*
X37346000Y-51254819D01*
X37346000Y-51254819D02*
X36965048Y-51254819D01*
X36965048Y-51254819D02*
X36965048Y-50254819D01*
X36965048Y-50254819D02*
X37298381Y-50254819D01*
X37298381Y-50254819D02*
X37393619Y-50302438D01*
X37393619Y-50302438D02*
X37441238Y-50350057D01*
X37441238Y-50350057D02*
X37488857Y-50445295D01*
X37488857Y-50445295D02*
X37488857Y-50540533D01*
X37488857Y-50540533D02*
X37441238Y-50635771D01*
X37441238Y-50635771D02*
X37393619Y-50683390D01*
X37393619Y-50683390D02*
X37298381Y-50731009D01*
X37298381Y-50731009D02*
X36965048Y-50731009D01*
X37965048Y-50873866D02*
X38726953Y-50873866D01*
X35266381Y-50731009D02*
X35409238Y-50778628D01*
X35409238Y-50778628D02*
X35456857Y-50826247D01*
X35456857Y-50826247D02*
X35504476Y-50921485D01*
X35504476Y-50921485D02*
X35504476Y-51064342D01*
X35504476Y-51064342D02*
X35456857Y-51159580D01*
X35456857Y-51159580D02*
X35409238Y-51207200D01*
X35409238Y-51207200D02*
X35314000Y-51254819D01*
X35314000Y-51254819D02*
X34933048Y-51254819D01*
X34933048Y-51254819D02*
X34933048Y-50254819D01*
X34933048Y-50254819D02*
X35266381Y-50254819D01*
X35266381Y-50254819D02*
X35361619Y-50302438D01*
X35361619Y-50302438D02*
X35409238Y-50350057D01*
X35409238Y-50350057D02*
X35456857Y-50445295D01*
X35456857Y-50445295D02*
X35456857Y-50540533D01*
X35456857Y-50540533D02*
X35409238Y-50635771D01*
X35409238Y-50635771D02*
X35361619Y-50683390D01*
X35361619Y-50683390D02*
X35266381Y-50731009D01*
X35266381Y-50731009D02*
X34933048Y-50731009D01*
X35933048Y-50873866D02*
X36694953Y-50873866D01*
X36314000Y-51254819D02*
X36314000Y-50492914D01*
D12*
%TO.C,U1*%
X33545000Y-48555000D02*
X33545000Y-25855000D01*
X38045000Y-24555000D02*
X38045000Y-25855000D01*
X38045000Y-25855000D02*
X33545000Y-25855000D01*
X47045000Y-24555000D02*
X38045000Y-24555000D01*
X47045000Y-24555000D02*
X47045000Y-25855000D01*
X51545000Y-25855000D02*
X47045000Y-25855000D01*
X51545000Y-48555000D02*
X33545000Y-48555000D01*
X51545000Y-48555000D02*
X51545000Y-25855000D01*
%TO.C,S1*%
X43111538Y-50418108D02*
X43887538Y-50418108D01*
X43111538Y-53918108D02*
X43111538Y-50418108D01*
X50835538Y-50418108D02*
X51611538Y-50418108D01*
X51611538Y-50418108D02*
X51611538Y-53918108D01*
X51611538Y-53918108D02*
X43111538Y-53918108D01*
D13*
X42461538Y-51318108D02*
G75*
G03*
X42261538Y-51318108I-100000J0D01*
G01*
X42261538Y-51318108D02*
G75*
G03*
X42461538Y-51318108I100000J0D01*
G01*
D11*
%TO.C,U3*%
X69128250Y-25860107D02*
X69128250Y-53860107D01*
X51928250Y-25860107D02*
X69128250Y-25860107D01*
X51928250Y-25860107D02*
X51928250Y-53860107D01*
X51928250Y-53860107D02*
X69128250Y-53860107D01*
D14*
%TO.C,B-*%
X36516000Y-53908000D02*
X36516000Y-52578000D01*
X37846000Y-53908000D02*
X36516000Y-53908000D01*
X39116000Y-53908000D02*
X39176000Y-53908000D01*
X39116000Y-53908000D02*
X39116000Y-51248000D01*
X39176000Y-53908000D02*
X39176000Y-51248000D01*
X39116000Y-51248000D02*
X39176000Y-51248000D01*
%TO.C,B+*%
X34484000Y-53908000D02*
X34484000Y-52578000D01*
X35814000Y-53908000D02*
X34484000Y-53908000D01*
X37084000Y-53908000D02*
X37144000Y-53908000D01*
X37084000Y-53908000D02*
X37084000Y-51248000D01*
X37144000Y-53908000D02*
X37144000Y-51248000D01*
X37084000Y-51248000D02*
X37144000Y-51248000D01*
%TD*%
M02*
