%TF.GenerationSoftware,KiCad,Pcbnew,7.0.10*%
%TF.CreationDate,2024-01-20T13:39:50-08:00*%
%TF.ProjectId,caribou_slime,63617269-626f-4755-9f73-6c696d652e6b,rev?*%
%TF.SameCoordinates,Original*%
%TF.FileFunction,Copper,L1,Top*%
%TF.FilePolarity,Positive*%
%FSLAX46Y46*%
G04 Gerber Fmt 4.6, Leading zero omitted, Abs format (unit mm)*
G04 Created by KiCad (PCBNEW 7.0.10) date 2024-01-20 13:39:50*
%MOMM*%
%LPD*%
G01*
G04 APERTURE LIST*
%TA.AperFunction,ComponentPad*%
%ADD10C,1.905000*%
%TD*%
%TA.AperFunction,ComponentPad*%
%ADD11R,1.308000X1.308000*%
%TD*%
%TA.AperFunction,ComponentPad*%
%ADD12C,1.308000*%
%TD*%
%TA.AperFunction,ComponentPad*%
%ADD13C,2.000000*%
%TD*%
%TA.AperFunction,ComponentPad*%
%ADD14R,1.500000X1.500000*%
%TD*%
%TA.AperFunction,ViaPad*%
%ADD15C,0.800000*%
%TD*%
%TA.AperFunction,Conductor*%
%ADD16C,0.250000*%
%TD*%
G04 APERTURE END LIST*
D10*
%TO.P,U1,0,GPIO0*%
%TO.N,Net-(U1-GPIO0)*%
X50165000Y-45085000D03*
%TO.P,U1,1,GPIO1*%
%TO.N,unconnected-(U1-GPIO1-Pad1)*%
X50165000Y-42545000D03*
%TO.P,U1,2,GPIO2*%
%TO.N,unconnected-(U1-GPIO2-Pad2)*%
X50165000Y-40005000D03*
%TO.P,U1,3,GPIO3*%
%TO.N,unconnected-(U1-GPIO3-Pad3)*%
X50165000Y-37465000D03*
%TO.P,U1,3.3,3V3*%
%TO.N,+3V3*%
X50165000Y-32385000D03*
%TO.P,U1,4,GPIO4*%
%TO.N,SDA*%
X50165000Y-34925000D03*
%TO.P,U1,5,GPIO5*%
%TO.N,SCL*%
X34925000Y-27305000D03*
%TO.P,U1,5V,5V*%
%TO.N,+5V*%
X50165000Y-27305000D03*
%TO.P,U1,6,GPIO6*%
%TO.N,unconnected-(U1-GPIO6-Pad6)*%
X34925000Y-29845000D03*
%TO.P,U1,7,GPIO7*%
%TO.N,unconnected-(U1-GPIO7-Pad7)*%
X34925000Y-32385000D03*
%TO.P,U1,8,GPIO8*%
%TO.N,unconnected-(U1-GPIO8-Pad8)*%
X34925000Y-34925000D03*
%TO.P,U1,9,GPIO9*%
%TO.N,unconnected-(U1-GPIO9-Pad9)*%
X34925000Y-37465000D03*
%TO.P,U1,10,GPIO10*%
%TO.N,unconnected-(U1-GPIO10-Pad10)*%
X34925000Y-40005000D03*
%TO.P,U1,20,GPIO20*%
%TO.N,unconnected-(U1-GPIO20-Pad20)*%
X34925000Y-42545000D03*
%TO.P,U1,21,GPIO21*%
%TO.N,unconnected-(U1-GPIO21-Pad21)*%
X34925000Y-45085000D03*
%TO.P,U1,G,GND*%
%TO.N,GND*%
X50165000Y-29845000D03*
%TD*%
D11*
%TO.P,S1,1*%
%TO.N,Net-(U3-OUT-)*%
X44861538Y-51318108D03*
D12*
%TO.P,S1,2*%
%TO.N,GND*%
X47361538Y-51318108D03*
%TO.P,S1,3*%
%TO.N,unconnected-(S1-Pad3)*%
X49861538Y-51318108D03*
%TD*%
D13*
%TO.P,U3,1,+*%
%TO.N,Net-(D1-A)*%
X67528250Y-28360107D03*
%TO.P,U3,2,-*%
%TO.N,unconnected-(U3---Pad2)*%
X53528250Y-28360107D03*
%TO.P,U3,3,OUT+*%
%TO.N,Net-(D2-A)*%
X67528250Y-51360107D03*
%TO.P,U3,4,OUT-*%
%TO.N,Net-(U3-OUT-)*%
X53528250Y-51360107D03*
%TO.P,U3,5,B+*%
%TO.N,Net-(U3-B+)*%
X64988250Y-51360107D03*
%TO.P,U3,6,B-*%
%TO.N,Net-(U3-B-)*%
X56068250Y-51360107D03*
%TD*%
D14*
%TO.P,B-,1,1*%
%TO.N,Net-(U3-B-)*%
X37846000Y-52578000D03*
%TD*%
%TO.P,B+,1,1*%
%TO.N,Net-(U3-B+)*%
X35814000Y-52578000D03*
%TD*%
D15*
%TO.N,+5V*%
X57150000Y-31750000D03*
%TO.N,Net-(D1-A)*%
X66040000Y-31750000D03*
%TO.N,Net-(D2-A)*%
X66040000Y-35560000D03*
%TO.N,GND*%
X41402000Y-37846000D03*
X43688000Y-37846000D03*
%TO.N,Net-(U3-B+)*%
X64770000Y-45720000D03*
%TO.N,SCL*%
X43180000Y-30480000D03*
%TO.N,SDA*%
X44422500Y-31750000D03*
%TD*%
D16*
%TO.N,+5V*%
X53711976Y-26670000D02*
X50800000Y-26670000D01*
X57150000Y-30108024D02*
X53711976Y-26670000D01*
X50800000Y-26670000D02*
X50165000Y-27305000D01*
X57150000Y-31750000D02*
X57150000Y-30108024D01*
%TO.N,Net-(D1-A)*%
X67528250Y-28360107D02*
X67528250Y-30261750D01*
X67528250Y-30261750D02*
X66040000Y-31750000D01*
%TO.N,Net-(D2-A)*%
X66040000Y-35560000D02*
X67528250Y-37048250D01*
X67528250Y-37048250D02*
X67528250Y-51360107D01*
%TO.N,Net-(U3-B+)*%
X64988250Y-45938250D02*
X64770000Y-45720000D01*
X64988250Y-51360107D02*
X64988250Y-45938250D01*
%TO.N,SCL*%
X40005000Y-27305000D02*
X34925000Y-27305000D01*
X43180000Y-30480000D02*
X40005000Y-27305000D01*
%TO.N,SDA*%
X47597500Y-34925000D02*
X44422500Y-31750000D01*
X50165000Y-34925000D02*
X47597500Y-34925000D01*
%TD*%
%TA.AperFunction,Conductor*%
%TO.N,GND*%
G36*
X69284539Y-25674185D02*
G01*
X69330294Y-25726989D01*
X69341500Y-25778500D01*
X69341500Y-53977500D01*
X69321815Y-54044539D01*
X69269011Y-54090294D01*
X69217500Y-54101500D01*
X33398500Y-54101500D01*
X33331461Y-54081815D01*
X33285706Y-54029011D01*
X33274500Y-53977500D01*
X33274500Y-53359517D01*
X34663500Y-53359517D01*
X34674292Y-53427657D01*
X34678354Y-53453304D01*
X34735950Y-53566342D01*
X34735952Y-53566344D01*
X34735954Y-53566347D01*
X34825652Y-53656045D01*
X34825654Y-53656046D01*
X34825658Y-53656050D01*
X34938694Y-53713645D01*
X34938698Y-53713647D01*
X35032475Y-53728499D01*
X35032481Y-53728500D01*
X36595518Y-53728499D01*
X36689304Y-53713646D01*
X36773707Y-53670640D01*
X36842372Y-53657744D01*
X36886294Y-53670641D01*
X36970693Y-53713645D01*
X36970698Y-53713647D01*
X37064475Y-53728499D01*
X37064481Y-53728500D01*
X38627518Y-53728499D01*
X38721304Y-53713646D01*
X38834342Y-53656050D01*
X38924050Y-53566342D01*
X38981646Y-53453304D01*
X38981646Y-53453302D01*
X38981647Y-53453301D01*
X38996499Y-53359524D01*
X38996500Y-53359519D01*
X38996499Y-52003625D01*
X43807038Y-52003625D01*
X43817133Y-52067360D01*
X43821892Y-52097412D01*
X43879488Y-52210450D01*
X43879490Y-52210452D01*
X43879492Y-52210455D01*
X43969190Y-52300153D01*
X43969192Y-52300154D01*
X43969196Y-52300158D01*
X44077912Y-52355552D01*
X44082236Y-52357755D01*
X44176013Y-52372607D01*
X44176019Y-52372608D01*
X45547056Y-52372607D01*
X45640842Y-52357754D01*
X45753880Y-52300158D01*
X45843588Y-52210450D01*
X45901184Y-52097412D01*
X45901184Y-52097410D01*
X45901185Y-52097409D01*
X45916037Y-52003632D01*
X45916038Y-52003627D01*
X45916037Y-51318108D01*
X46202594Y-51318108D01*
X46222326Y-51531062D01*
X46222327Y-51531064D01*
X46280853Y-51736762D01*
X46280859Y-51736777D01*
X46376180Y-51928207D01*
X46376185Y-51928215D01*
X46385518Y-51940573D01*
X46963584Y-51362507D01*
X46976373Y-51443256D01*
X47033897Y-51556153D01*
X47123493Y-51645749D01*
X47236390Y-51703273D01*
X47317137Y-51716061D01*
X46741624Y-52291573D01*
X46844951Y-52355551D01*
X46844952Y-52355552D01*
X47044375Y-52432808D01*
X47254606Y-52472108D01*
X47468470Y-52472108D01*
X47678700Y-52432808D01*
X47878123Y-52355552D01*
X47878127Y-52355550D01*
X47981449Y-52291574D01*
X47981449Y-52291573D01*
X47405939Y-51716061D01*
X47486686Y-51703273D01*
X47599583Y-51645749D01*
X47689179Y-51556153D01*
X47746703Y-51443256D01*
X47759491Y-51362508D01*
X48337556Y-51940572D01*
X48337557Y-51940572D01*
X48346890Y-51928215D01*
X48346893Y-51928210D01*
X48442216Y-51736777D01*
X48442222Y-51736762D01*
X48500748Y-51531064D01*
X48500749Y-51531062D01*
X48520482Y-51318108D01*
X48801936Y-51318108D01*
X48822295Y-51524824D01*
X48882594Y-51723604D01*
X48980507Y-51906785D01*
X48980512Y-51906792D01*
X49112285Y-52067360D01*
X49224021Y-52159058D01*
X49272855Y-52199135D01*
X49272858Y-52199136D01*
X49272860Y-52199138D01*
X49456041Y-52297051D01*
X49456043Y-52297051D01*
X49456046Y-52297053D01*
X49654820Y-52357350D01*
X49861538Y-52377710D01*
X50068256Y-52357350D01*
X50267030Y-52297053D01*
X50277281Y-52291574D01*
X50405086Y-52223260D01*
X50450221Y-52199135D01*
X50610790Y-52067360D01*
X50742565Y-51906791D01*
X50840483Y-51723600D01*
X50900780Y-51524826D01*
X50917003Y-51360113D01*
X52122950Y-51360113D01*
X52142114Y-51591404D01*
X52142116Y-51591415D01*
X52199092Y-51816407D01*
X52292325Y-52028955D01*
X52419266Y-52223254D01*
X52419269Y-52223258D01*
X52419271Y-52223260D01*
X52576466Y-52394020D01*
X52576469Y-52394022D01*
X52576472Y-52394025D01*
X52759615Y-52536571D01*
X52759621Y-52536575D01*
X52759624Y-52536577D01*
X52963747Y-52647043D01*
X53077737Y-52686175D01*
X53183265Y-52722404D01*
X53183267Y-52722404D01*
X53183269Y-52722405D01*
X53412201Y-52760607D01*
X53412202Y-52760607D01*
X53644298Y-52760607D01*
X53644299Y-52760607D01*
X53873231Y-52722405D01*
X54092753Y-52647043D01*
X54296876Y-52536577D01*
X54480034Y-52394020D01*
X54637229Y-52223260D01*
X54694441Y-52135689D01*
X54747587Y-52090333D01*
X54816818Y-52080909D01*
X54880154Y-52110411D01*
X54902059Y-52135690D01*
X54959266Y-52223254D01*
X54959269Y-52223258D01*
X54959271Y-52223260D01*
X55116466Y-52394020D01*
X55116469Y-52394022D01*
X55116472Y-52394025D01*
X55299615Y-52536571D01*
X55299621Y-52536575D01*
X55299624Y-52536577D01*
X55503747Y-52647043D01*
X55617737Y-52686175D01*
X55723265Y-52722404D01*
X55723267Y-52722404D01*
X55723269Y-52722405D01*
X55952201Y-52760607D01*
X55952202Y-52760607D01*
X56184298Y-52760607D01*
X56184299Y-52760607D01*
X56413231Y-52722405D01*
X56632753Y-52647043D01*
X56836876Y-52536577D01*
X57020034Y-52394020D01*
X57177229Y-52223260D01*
X57304174Y-52028956D01*
X57397407Y-51816407D01*
X57454384Y-51591412D01*
X57454385Y-51591404D01*
X57473550Y-51360113D01*
X63582950Y-51360113D01*
X63602114Y-51591404D01*
X63602116Y-51591415D01*
X63659092Y-51816407D01*
X63752325Y-52028955D01*
X63879266Y-52223254D01*
X63879269Y-52223258D01*
X63879271Y-52223260D01*
X64036466Y-52394020D01*
X64036469Y-52394022D01*
X64036472Y-52394025D01*
X64219615Y-52536571D01*
X64219621Y-52536575D01*
X64219624Y-52536577D01*
X64423747Y-52647043D01*
X64537737Y-52686175D01*
X64643265Y-52722404D01*
X64643267Y-52722404D01*
X64643269Y-52722405D01*
X64872201Y-52760607D01*
X64872202Y-52760607D01*
X65104298Y-52760607D01*
X65104299Y-52760607D01*
X65333231Y-52722405D01*
X65552753Y-52647043D01*
X65756876Y-52536577D01*
X65940034Y-52394020D01*
X66097229Y-52223260D01*
X66154441Y-52135689D01*
X66207587Y-52090333D01*
X66276818Y-52080909D01*
X66340154Y-52110411D01*
X66362059Y-52135690D01*
X66419266Y-52223254D01*
X66419269Y-52223258D01*
X66419271Y-52223260D01*
X66576466Y-52394020D01*
X66576469Y-52394022D01*
X66576472Y-52394025D01*
X66759615Y-52536571D01*
X66759621Y-52536575D01*
X66759624Y-52536577D01*
X66963747Y-52647043D01*
X67077737Y-52686175D01*
X67183265Y-52722404D01*
X67183267Y-52722404D01*
X67183269Y-52722405D01*
X67412201Y-52760607D01*
X67412202Y-52760607D01*
X67644298Y-52760607D01*
X67644299Y-52760607D01*
X67873231Y-52722405D01*
X68092753Y-52647043D01*
X68296876Y-52536577D01*
X68480034Y-52394020D01*
X68637229Y-52223260D01*
X68764174Y-52028956D01*
X68857407Y-51816407D01*
X68914384Y-51591412D01*
X68914385Y-51591404D01*
X68933550Y-51360113D01*
X68933550Y-51360100D01*
X68914385Y-51128809D01*
X68914383Y-51128798D01*
X68857407Y-50903806D01*
X68764174Y-50691258D01*
X68637233Y-50496959D01*
X68637230Y-50496956D01*
X68637229Y-50496954D01*
X68480034Y-50326194D01*
X68480029Y-50326190D01*
X68480027Y-50326188D01*
X68296884Y-50183642D01*
X68296878Y-50183638D01*
X68118732Y-50087230D01*
X68069142Y-50038010D01*
X68053750Y-49978175D01*
X68053750Y-37059358D01*
X68053822Y-37055125D01*
X68054879Y-37024176D01*
X68055910Y-36994005D01*
X68046690Y-36956175D01*
X68044322Y-36943709D01*
X68039021Y-36905139D01*
X68039020Y-36905136D01*
X68032389Y-36889872D01*
X68025646Y-36869821D01*
X68021707Y-36853655D01*
X68002626Y-36819719D01*
X67996983Y-36808358D01*
X67981469Y-36772641D01*
X67970956Y-36759719D01*
X67959061Y-36742240D01*
X67950907Y-36727738D01*
X67923373Y-36700204D01*
X67914886Y-36690800D01*
X67890304Y-36660585D01*
X67876700Y-36650982D01*
X67860528Y-36637359D01*
X66881471Y-35658302D01*
X66847986Y-35596979D01*
X66846458Y-35566965D01*
X66845565Y-35566965D01*
X66845565Y-35559997D01*
X66825369Y-35380750D01*
X66825368Y-35380745D01*
X66793695Y-35290228D01*
X66765789Y-35210478D01*
X66669816Y-35057738D01*
X66542262Y-34930184D01*
X66534001Y-34924993D01*
X66389523Y-34834211D01*
X66219254Y-34774631D01*
X66219249Y-34774630D01*
X66040004Y-34754435D01*
X66039996Y-34754435D01*
X65860750Y-34774630D01*
X65860745Y-34774631D01*
X65690476Y-34834211D01*
X65537737Y-34930184D01*
X65410184Y-35057737D01*
X65314211Y-35210476D01*
X65254631Y-35380745D01*
X65254630Y-35380750D01*
X65234435Y-35559996D01*
X65234435Y-35560003D01*
X65254630Y-35739249D01*
X65254631Y-35739254D01*
X65314211Y-35909523D01*
X65409744Y-36061562D01*
X65410184Y-36062262D01*
X65537738Y-36189816D01*
X65690478Y-36285789D01*
X65812339Y-36328430D01*
X65860745Y-36345368D01*
X65860750Y-36345369D01*
X66039997Y-36365565D01*
X66046965Y-36365565D01*
X66046965Y-36367730D01*
X66105527Y-36377971D01*
X66138302Y-36401471D01*
X66966431Y-37229600D01*
X66999916Y-37290923D01*
X67002750Y-37317281D01*
X67002750Y-49978175D01*
X66983065Y-50045214D01*
X66937768Y-50087230D01*
X66759621Y-50183638D01*
X66759615Y-50183642D01*
X66576472Y-50326188D01*
X66576469Y-50326191D01*
X66576466Y-50326193D01*
X66576466Y-50326194D01*
X66517517Y-50390229D01*
X66419266Y-50496959D01*
X66362059Y-50584523D01*
X66308912Y-50629880D01*
X66239681Y-50639304D01*
X66176345Y-50609802D01*
X66154441Y-50584523D01*
X66097233Y-50496959D01*
X66097230Y-50496956D01*
X66097229Y-50496954D01*
X65940034Y-50326194D01*
X65940029Y-50326190D01*
X65940027Y-50326188D01*
X65756884Y-50183642D01*
X65756878Y-50183638D01*
X65578732Y-50087230D01*
X65529142Y-50038010D01*
X65513750Y-49978175D01*
X65513750Y-46039259D01*
X65520709Y-45998304D01*
X65555368Y-45899255D01*
X65575565Y-45720000D01*
X65555368Y-45540745D01*
X65495789Y-45370478D01*
X65399816Y-45217738D01*
X65272262Y-45090184D01*
X65264001Y-45084993D01*
X65119523Y-44994211D01*
X64949254Y-44934631D01*
X64949249Y-44934630D01*
X64770004Y-44914435D01*
X64769996Y-44914435D01*
X64590750Y-44934630D01*
X64590745Y-44934631D01*
X64420476Y-44994211D01*
X64267737Y-45090184D01*
X64140184Y-45217737D01*
X64044211Y-45370476D01*
X63984631Y-45540745D01*
X63984630Y-45540750D01*
X63964435Y-45719996D01*
X63964435Y-45720003D01*
X63984630Y-45899249D01*
X63984631Y-45899254D01*
X64044211Y-46069523D01*
X64139744Y-46221562D01*
X64140184Y-46222262D01*
X64267738Y-46349816D01*
X64404723Y-46435889D01*
X64451013Y-46488222D01*
X64462750Y-46540882D01*
X64462750Y-49978175D01*
X64443065Y-50045214D01*
X64397768Y-50087230D01*
X64219621Y-50183638D01*
X64219615Y-50183642D01*
X64036472Y-50326188D01*
X64036469Y-50326191D01*
X64036466Y-50326193D01*
X64036466Y-50326194D01*
X63977517Y-50390229D01*
X63879266Y-50496959D01*
X63752325Y-50691258D01*
X63659092Y-50903806D01*
X63602116Y-51128798D01*
X63602114Y-51128809D01*
X63582950Y-51360100D01*
X63582950Y-51360113D01*
X57473550Y-51360113D01*
X57473550Y-51360100D01*
X57454385Y-51128809D01*
X57454383Y-51128798D01*
X57397407Y-50903806D01*
X57304174Y-50691258D01*
X57177233Y-50496959D01*
X57177230Y-50496956D01*
X57177229Y-50496954D01*
X57020034Y-50326194D01*
X57020029Y-50326190D01*
X57020027Y-50326188D01*
X56836884Y-50183642D01*
X56836878Y-50183638D01*
X56632754Y-50073171D01*
X56632745Y-50073168D01*
X56413234Y-49997809D01*
X56241532Y-49969157D01*
X56184299Y-49959607D01*
X55952201Y-49959607D01*
X55906414Y-49967247D01*
X55723265Y-49997809D01*
X55503754Y-50073168D01*
X55503745Y-50073171D01*
X55299621Y-50183638D01*
X55299615Y-50183642D01*
X55116472Y-50326188D01*
X55116469Y-50326191D01*
X55116466Y-50326193D01*
X55116466Y-50326194D01*
X55057517Y-50390229D01*
X54959266Y-50496959D01*
X54902059Y-50584523D01*
X54848912Y-50629880D01*
X54779681Y-50639304D01*
X54716345Y-50609802D01*
X54694441Y-50584523D01*
X54637233Y-50496959D01*
X54637230Y-50496956D01*
X54637229Y-50496954D01*
X54480034Y-50326194D01*
X54480029Y-50326190D01*
X54480027Y-50326188D01*
X54296884Y-50183642D01*
X54296878Y-50183638D01*
X54092754Y-50073171D01*
X54092745Y-50073168D01*
X53873234Y-49997809D01*
X53701532Y-49969157D01*
X53644299Y-49959607D01*
X53412201Y-49959607D01*
X53366414Y-49967247D01*
X53183265Y-49997809D01*
X52963754Y-50073168D01*
X52963745Y-50073171D01*
X52759621Y-50183638D01*
X52759615Y-50183642D01*
X52576472Y-50326188D01*
X52576469Y-50326191D01*
X52576466Y-50326193D01*
X52576466Y-50326194D01*
X52517517Y-50390229D01*
X52419266Y-50496959D01*
X52292325Y-50691258D01*
X52199092Y-50903806D01*
X52142116Y-51128798D01*
X52142114Y-51128809D01*
X52122950Y-51360100D01*
X52122950Y-51360113D01*
X50917003Y-51360113D01*
X50921140Y-51318108D01*
X50900780Y-51111390D01*
X50840483Y-50912616D01*
X50840481Y-50912613D01*
X50840481Y-50912611D01*
X50742568Y-50729430D01*
X50742566Y-50729428D01*
X50742565Y-50729425D01*
X50663094Y-50632589D01*
X50610790Y-50568855D01*
X50450222Y-50437082D01*
X50450215Y-50437077D01*
X50267034Y-50339164D01*
X50068254Y-50278865D01*
X49861538Y-50258506D01*
X49654821Y-50278865D01*
X49456041Y-50339164D01*
X49272860Y-50437077D01*
X49272853Y-50437082D01*
X49112285Y-50568855D01*
X48980512Y-50729423D01*
X48980507Y-50729430D01*
X48882594Y-50912611D01*
X48822295Y-51111391D01*
X48801936Y-51318108D01*
X48520482Y-51318108D01*
X48520482Y-51318107D01*
X48500749Y-51105153D01*
X48500748Y-51105151D01*
X48442222Y-50899453D01*
X48442216Y-50899438D01*
X48346895Y-50708009D01*
X48346893Y-50708006D01*
X48337556Y-50695642D01*
X47759491Y-51273707D01*
X47746703Y-51192960D01*
X47689179Y-51080063D01*
X47599583Y-50990467D01*
X47486686Y-50932943D01*
X47405938Y-50920154D01*
X47981450Y-50344641D01*
X47878124Y-50280664D01*
X47878123Y-50280663D01*
X47678700Y-50203407D01*
X47468470Y-50164108D01*
X47254606Y-50164108D01*
X47044375Y-50203407D01*
X46844954Y-50280662D01*
X46844948Y-50280665D01*
X46741625Y-50344640D01*
X46741624Y-50344641D01*
X47317138Y-50920154D01*
X47236390Y-50932943D01*
X47123493Y-50990467D01*
X47033897Y-51080063D01*
X46976373Y-51192960D01*
X46963584Y-51273707D01*
X46385518Y-50695641D01*
X46376184Y-50708001D01*
X46280859Y-50899438D01*
X46280853Y-50899453D01*
X46222327Y-51105151D01*
X46222326Y-51105153D01*
X46202594Y-51318107D01*
X46202594Y-51318108D01*
X45916037Y-51318108D01*
X45916037Y-50632590D01*
X45901184Y-50538804D01*
X45843588Y-50425766D01*
X45843584Y-50425762D01*
X45843583Y-50425760D01*
X45753885Y-50336062D01*
X45753882Y-50336060D01*
X45753880Y-50336058D01*
X45645164Y-50280664D01*
X45640839Y-50278460D01*
X45547062Y-50263608D01*
X44176020Y-50263608D01*
X44095057Y-50276431D01*
X44082234Y-50278462D01*
X43969196Y-50336058D01*
X43969195Y-50336059D01*
X43969190Y-50336062D01*
X43879492Y-50425760D01*
X43879489Y-50425765D01*
X43879488Y-50425766D01*
X43860289Y-50463445D01*
X43821890Y-50538806D01*
X43807038Y-50632583D01*
X43807038Y-52003625D01*
X38996499Y-52003625D01*
X38996499Y-51796482D01*
X38981646Y-51702696D01*
X38924050Y-51589658D01*
X38924046Y-51589654D01*
X38924045Y-51589652D01*
X38834347Y-51499954D01*
X38834344Y-51499952D01*
X38834342Y-51499950D01*
X38757517Y-51460805D01*
X38721301Y-51442352D01*
X38627524Y-51427500D01*
X37064482Y-51427500D01*
X36983519Y-51440323D01*
X36970696Y-51442354D01*
X36886293Y-51485359D01*
X36817625Y-51498255D01*
X36773706Y-51485359D01*
X36737934Y-51467132D01*
X36689301Y-51442352D01*
X36595524Y-51427500D01*
X35032482Y-51427500D01*
X34951519Y-51440323D01*
X34938696Y-51442354D01*
X34825658Y-51499950D01*
X34825657Y-51499951D01*
X34825652Y-51499954D01*
X34735954Y-51589652D01*
X34735951Y-51589657D01*
X34735950Y-51589658D01*
X34735055Y-51591415D01*
X34678352Y-51702698D01*
X34663500Y-51796475D01*
X34663500Y-53359517D01*
X33274500Y-53359517D01*
X33274500Y-45085006D01*
X33567363Y-45085006D01*
X33585877Y-45308452D01*
X33585879Y-45308460D01*
X33640923Y-45525823D01*
X33730994Y-45731165D01*
X33840815Y-45899257D01*
X33853634Y-45918878D01*
X34005497Y-46083846D01*
X34005500Y-46083848D01*
X34005503Y-46083851D01*
X34182434Y-46221562D01*
X34182440Y-46221566D01*
X34182443Y-46221568D01*
X34379643Y-46328288D01*
X34591720Y-46401094D01*
X34812887Y-46438000D01*
X35037113Y-46438000D01*
X35258280Y-46401094D01*
X35470357Y-46328288D01*
X35667557Y-46221568D01*
X35844503Y-46083846D01*
X35996366Y-45918878D01*
X36119006Y-45731164D01*
X36209076Y-45525824D01*
X36264121Y-45308460D01*
X36264122Y-45308452D01*
X36282637Y-45085006D01*
X36282637Y-45084993D01*
X36264122Y-44861547D01*
X36264121Y-44861544D01*
X36264121Y-44861540D01*
X36209076Y-44644176D01*
X36119006Y-44438836D01*
X35996366Y-44251122D01*
X35844503Y-44086154D01*
X35844498Y-44086150D01*
X35844496Y-44086148D01*
X35667565Y-43948437D01*
X35667559Y-43948433D01*
X35657704Y-43943100D01*
X35622511Y-43924054D01*
X35572922Y-43874835D01*
X35557814Y-43806618D01*
X35581985Y-43741063D01*
X35622511Y-43705945D01*
X35667557Y-43681568D01*
X35844503Y-43543846D01*
X35996366Y-43378878D01*
X36119006Y-43191164D01*
X36209076Y-42985824D01*
X36264121Y-42768460D01*
X36282637Y-42545000D01*
X36282637Y-42544993D01*
X36264122Y-42321547D01*
X36264121Y-42321544D01*
X36264121Y-42321540D01*
X36209076Y-42104176D01*
X36119006Y-41898836D01*
X35996366Y-41711122D01*
X35844503Y-41546154D01*
X35844498Y-41546150D01*
X35844496Y-41546148D01*
X35667565Y-41408437D01*
X35667559Y-41408433D01*
X35657704Y-41403100D01*
X35622511Y-41384054D01*
X35572922Y-41334835D01*
X35557814Y-41266618D01*
X35581985Y-41201063D01*
X35622511Y-41165945D01*
X35667557Y-41141568D01*
X35844503Y-41003846D01*
X35996366Y-40838878D01*
X36119006Y-40651164D01*
X36209076Y-40445824D01*
X36264121Y-40228460D01*
X36282637Y-40005000D01*
X36282637Y-40004993D01*
X36264122Y-39781547D01*
X36264121Y-39781544D01*
X36264121Y-39781540D01*
X36209076Y-39564176D01*
X36119006Y-39358836D01*
X35996366Y-39171122D01*
X35844503Y-39006154D01*
X35844498Y-39006150D01*
X35844496Y-39006148D01*
X35667565Y-38868437D01*
X35667559Y-38868433D01*
X35657704Y-38863100D01*
X35622511Y-38844054D01*
X35572922Y-38794835D01*
X35557814Y-38726618D01*
X35581985Y-38661063D01*
X35622511Y-38625945D01*
X35667557Y-38601568D01*
X35844503Y-38463846D01*
X35996366Y-38298878D01*
X36119006Y-38111164D01*
X36209076Y-37905824D01*
X36264121Y-37688460D01*
X36282637Y-37465000D01*
X36282637Y-37464993D01*
X36264122Y-37241547D01*
X36264121Y-37241544D01*
X36264121Y-37241540D01*
X36209076Y-37024176D01*
X36119006Y-36818836D01*
X36115967Y-36814185D01*
X35996368Y-36631125D01*
X35996367Y-36631124D01*
X35996366Y-36631122D01*
X35844503Y-36466154D01*
X35844498Y-36466150D01*
X35844496Y-36466148D01*
X35667565Y-36328437D01*
X35667559Y-36328433D01*
X35657704Y-36323100D01*
X35622511Y-36304054D01*
X35572922Y-36254835D01*
X35557814Y-36186618D01*
X35581985Y-36121063D01*
X35622511Y-36085945D01*
X35667557Y-36061568D01*
X35844503Y-35923846D01*
X35996366Y-35758878D01*
X36119006Y-35571164D01*
X36209076Y-35365824D01*
X36264121Y-35148460D01*
X36264122Y-35148452D01*
X36282637Y-34925006D01*
X36282637Y-34924993D01*
X36264122Y-34701547D01*
X36264121Y-34701544D01*
X36264121Y-34701540D01*
X36209076Y-34484176D01*
X36119006Y-34278836D01*
X36119003Y-34278832D01*
X35996368Y-34091125D01*
X35996367Y-34091124D01*
X35996366Y-34091122D01*
X35844503Y-33926154D01*
X35844498Y-33926150D01*
X35844496Y-33926148D01*
X35667565Y-33788437D01*
X35667559Y-33788433D01*
X35657704Y-33783100D01*
X35622511Y-33764054D01*
X35572922Y-33714835D01*
X35557814Y-33646618D01*
X35581985Y-33581063D01*
X35622511Y-33545945D01*
X35667557Y-33521568D01*
X35844503Y-33383846D01*
X35996366Y-33218878D01*
X36119006Y-33031164D01*
X36209076Y-32825824D01*
X36264121Y-32608460D01*
X36268504Y-32555565D01*
X36282637Y-32385006D01*
X36282637Y-32384993D01*
X36264122Y-32161547D01*
X36264121Y-32161544D01*
X36264121Y-32161540D01*
X36209076Y-31944176D01*
X36119006Y-31738836D01*
X36062074Y-31651696D01*
X35996368Y-31551125D01*
X35996367Y-31551124D01*
X35996366Y-31551122D01*
X35844503Y-31386154D01*
X35844498Y-31386150D01*
X35844496Y-31386148D01*
X35667565Y-31248437D01*
X35667559Y-31248433D01*
X35657704Y-31243100D01*
X35622511Y-31224054D01*
X35572922Y-31174835D01*
X35557814Y-31106618D01*
X35581985Y-31041063D01*
X35622511Y-31005945D01*
X35667557Y-30981568D01*
X35689317Y-30964632D01*
X35817585Y-30864797D01*
X35844503Y-30843846D01*
X35996366Y-30678878D01*
X36119006Y-30491164D01*
X36209076Y-30285824D01*
X36264121Y-30068460D01*
X36264842Y-30059757D01*
X36282637Y-29845006D01*
X36282637Y-29844993D01*
X36264122Y-29621547D01*
X36264121Y-29621544D01*
X36264121Y-29621540D01*
X36209076Y-29404176D01*
X36119006Y-29198836D01*
X35996366Y-29011122D01*
X35844503Y-28846154D01*
X35844498Y-28846150D01*
X35844496Y-28846148D01*
X35667565Y-28708437D01*
X35667559Y-28708433D01*
X35657704Y-28703100D01*
X35622511Y-28684054D01*
X35572922Y-28634835D01*
X35557814Y-28566618D01*
X35581985Y-28501063D01*
X35622511Y-28465945D01*
X35667557Y-28441568D01*
X35844503Y-28303846D01*
X35996366Y-28138878D01*
X36119006Y-27951164D01*
X36139392Y-27904689D01*
X36184349Y-27851204D01*
X36251085Y-27830514D01*
X36252948Y-27830500D01*
X39735968Y-27830500D01*
X39803007Y-27850185D01*
X39823649Y-27866819D01*
X42338528Y-30381697D01*
X42372013Y-30443020D01*
X42373546Y-30473037D01*
X42374435Y-30473037D01*
X42374435Y-30480003D01*
X42394630Y-30659249D01*
X42394631Y-30659254D01*
X42454211Y-30829523D01*
X42539105Y-30964630D01*
X42550184Y-30982262D01*
X42677738Y-31109816D01*
X42691428Y-31118418D01*
X42830474Y-31205787D01*
X42830478Y-31205789D01*
X43000745Y-31265368D01*
X43000750Y-31265369D01*
X43179996Y-31285565D01*
X43180000Y-31285565D01*
X43180004Y-31285565D01*
X43359249Y-31265369D01*
X43359252Y-31265368D01*
X43359255Y-31265368D01*
X43529522Y-31205789D01*
X43545738Y-31195600D01*
X43547909Y-31194236D01*
X43615145Y-31175234D01*
X43681981Y-31195600D01*
X43727196Y-31248867D01*
X43736435Y-31318123D01*
X43718877Y-31365199D01*
X43696712Y-31400474D01*
X43637131Y-31570745D01*
X43637130Y-31570750D01*
X43616935Y-31749996D01*
X43616935Y-31750003D01*
X43637130Y-31929249D01*
X43637131Y-31929254D01*
X43696711Y-32099523D01*
X43735684Y-32161547D01*
X43792684Y-32252262D01*
X43920238Y-32379816D01*
X44072978Y-32475789D01*
X44243245Y-32535368D01*
X44243250Y-32535369D01*
X44422497Y-32555565D01*
X44429465Y-32555565D01*
X44429465Y-32557724D01*
X44488057Y-32567986D01*
X44520802Y-32591472D01*
X47218044Y-35288713D01*
X47220986Y-35291757D01*
X47262743Y-35336468D01*
X47296001Y-35356692D01*
X47306498Y-35363836D01*
X47309120Y-35365824D01*
X47337525Y-35387364D01*
X47353010Y-35393470D01*
X47371948Y-35402876D01*
X47386172Y-35411526D01*
X47423668Y-35422031D01*
X47435680Y-35426071D01*
X47471911Y-35440359D01*
X47477567Y-35440940D01*
X47488468Y-35442061D01*
X47509246Y-35446009D01*
X47525272Y-35450500D01*
X47564204Y-35450500D01*
X47576883Y-35451150D01*
X47581928Y-35451668D01*
X47615610Y-35455131D01*
X47632014Y-35452302D01*
X47653080Y-35450500D01*
X48837052Y-35450500D01*
X48904091Y-35470185D01*
X48949846Y-35522989D01*
X48950608Y-35524689D01*
X48970995Y-35571167D01*
X49093631Y-35758874D01*
X49093634Y-35758878D01*
X49245497Y-35923846D01*
X49245500Y-35923848D01*
X49245503Y-35923851D01*
X49422434Y-36061562D01*
X49422441Y-36061566D01*
X49422443Y-36061568D01*
X49427150Y-36064115D01*
X49467488Y-36085946D01*
X49517078Y-36135166D01*
X49532185Y-36203383D01*
X49508014Y-36268938D01*
X49467488Y-36304054D01*
X49422445Y-36328430D01*
X49422434Y-36328437D01*
X49245503Y-36466148D01*
X49245500Y-36466151D01*
X49093631Y-36631125D01*
X48970994Y-36818834D01*
X48880923Y-37024176D01*
X48825879Y-37241539D01*
X48825877Y-37241547D01*
X48807363Y-37464993D01*
X48807363Y-37465006D01*
X48825877Y-37688452D01*
X48825879Y-37688460D01*
X48880923Y-37905823D01*
X48970994Y-38111165D01*
X49093631Y-38298874D01*
X49093634Y-38298878D01*
X49245497Y-38463846D01*
X49245500Y-38463848D01*
X49245503Y-38463851D01*
X49422434Y-38601562D01*
X49422445Y-38601569D01*
X49467488Y-38625946D01*
X49517078Y-38675166D01*
X49532185Y-38743383D01*
X49508014Y-38808938D01*
X49467488Y-38844054D01*
X49422445Y-38868430D01*
X49422434Y-38868437D01*
X49245503Y-39006148D01*
X49245500Y-39006151D01*
X49093631Y-39171125D01*
X48970994Y-39358834D01*
X48880923Y-39564176D01*
X48825879Y-39781539D01*
X48825877Y-39781547D01*
X48807363Y-40004993D01*
X48807363Y-40005006D01*
X48825877Y-40228452D01*
X48825879Y-40228460D01*
X48880923Y-40445823D01*
X48970994Y-40651165D01*
X49093631Y-40838874D01*
X49093634Y-40838878D01*
X49245497Y-41003846D01*
X49245500Y-41003848D01*
X49245503Y-41003851D01*
X49422434Y-41141562D01*
X49422445Y-41141569D01*
X49467488Y-41165946D01*
X49517078Y-41215166D01*
X49532185Y-41283383D01*
X49508014Y-41348938D01*
X49467488Y-41384054D01*
X49422445Y-41408430D01*
X49422434Y-41408437D01*
X49245503Y-41546148D01*
X49245500Y-41546151D01*
X49093631Y-41711125D01*
X48970994Y-41898834D01*
X48880923Y-42104176D01*
X48825879Y-42321539D01*
X48825877Y-42321547D01*
X48807363Y-42544993D01*
X48807363Y-42545006D01*
X48825877Y-42768452D01*
X48825879Y-42768460D01*
X48880923Y-42985823D01*
X48970994Y-43191165D01*
X49093631Y-43378874D01*
X49093634Y-43378878D01*
X49245497Y-43543846D01*
X49245500Y-43543848D01*
X49245503Y-43543851D01*
X49422434Y-43681562D01*
X49422445Y-43681569D01*
X49467488Y-43705946D01*
X49517078Y-43755166D01*
X49532185Y-43823383D01*
X49508014Y-43888938D01*
X49467488Y-43924054D01*
X49422445Y-43948430D01*
X49422434Y-43948437D01*
X49245503Y-44086148D01*
X49245500Y-44086151D01*
X49093631Y-44251125D01*
X48970994Y-44438834D01*
X48880923Y-44644176D01*
X48825879Y-44861539D01*
X48825877Y-44861547D01*
X48807363Y-45084993D01*
X48807363Y-45085006D01*
X48825877Y-45308452D01*
X48825879Y-45308460D01*
X48880923Y-45525823D01*
X48970994Y-45731165D01*
X49080815Y-45899257D01*
X49093634Y-45918878D01*
X49245497Y-46083846D01*
X49245500Y-46083848D01*
X49245503Y-46083851D01*
X49422434Y-46221562D01*
X49422440Y-46221566D01*
X49422443Y-46221568D01*
X49619643Y-46328288D01*
X49831720Y-46401094D01*
X50052887Y-46438000D01*
X50277113Y-46438000D01*
X50498280Y-46401094D01*
X50710357Y-46328288D01*
X50907557Y-46221568D01*
X51084503Y-46083846D01*
X51236366Y-45918878D01*
X51359006Y-45731164D01*
X51449076Y-45525824D01*
X51504121Y-45308460D01*
X51504122Y-45308452D01*
X51522637Y-45085006D01*
X51522637Y-45084993D01*
X51504122Y-44861547D01*
X51504121Y-44861544D01*
X51504121Y-44861540D01*
X51449076Y-44644176D01*
X51359006Y-44438836D01*
X51236366Y-44251122D01*
X51084503Y-44086154D01*
X51084498Y-44086150D01*
X51084496Y-44086148D01*
X50907565Y-43948437D01*
X50907559Y-43948433D01*
X50897704Y-43943100D01*
X50862511Y-43924054D01*
X50812922Y-43874835D01*
X50797814Y-43806618D01*
X50821985Y-43741063D01*
X50862511Y-43705945D01*
X50907557Y-43681568D01*
X51084503Y-43543846D01*
X51236366Y-43378878D01*
X51359006Y-43191164D01*
X51449076Y-42985824D01*
X51504121Y-42768460D01*
X51522637Y-42545000D01*
X51522637Y-42544993D01*
X51504122Y-42321547D01*
X51504121Y-42321544D01*
X51504121Y-42321540D01*
X51449076Y-42104176D01*
X51359006Y-41898836D01*
X51236366Y-41711122D01*
X51084503Y-41546154D01*
X51084498Y-41546150D01*
X51084496Y-41546148D01*
X50907565Y-41408437D01*
X50907559Y-41408433D01*
X50897704Y-41403100D01*
X50862511Y-41384054D01*
X50812922Y-41334835D01*
X50797814Y-41266618D01*
X50821985Y-41201063D01*
X50862511Y-41165945D01*
X50907557Y-41141568D01*
X51084503Y-41003846D01*
X51236366Y-40838878D01*
X51359006Y-40651164D01*
X51449076Y-40445824D01*
X51504121Y-40228460D01*
X51522637Y-40005000D01*
X51522637Y-40004993D01*
X51504122Y-39781547D01*
X51504121Y-39781544D01*
X51504121Y-39781540D01*
X51449076Y-39564176D01*
X51359006Y-39358836D01*
X51236366Y-39171122D01*
X51084503Y-39006154D01*
X51084498Y-39006150D01*
X51084496Y-39006148D01*
X50907565Y-38868437D01*
X50907559Y-38868433D01*
X50897704Y-38863100D01*
X50862511Y-38844054D01*
X50812922Y-38794835D01*
X50797814Y-38726618D01*
X50821985Y-38661063D01*
X50862511Y-38625945D01*
X50907557Y-38601568D01*
X51084503Y-38463846D01*
X51236366Y-38298878D01*
X51359006Y-38111164D01*
X51449076Y-37905824D01*
X51504121Y-37688460D01*
X51522637Y-37465000D01*
X51522637Y-37464993D01*
X51504122Y-37241547D01*
X51504121Y-37241544D01*
X51504121Y-37241540D01*
X51449076Y-37024176D01*
X51359006Y-36818836D01*
X51355967Y-36814185D01*
X51236368Y-36631125D01*
X51236367Y-36631124D01*
X51236366Y-36631122D01*
X51084503Y-36466154D01*
X51084498Y-36466150D01*
X51084496Y-36466148D01*
X50907565Y-36328437D01*
X50907559Y-36328433D01*
X50897704Y-36323100D01*
X50862511Y-36304054D01*
X50812922Y-36254835D01*
X50797814Y-36186618D01*
X50821985Y-36121063D01*
X50862511Y-36085945D01*
X50907557Y-36061568D01*
X51084503Y-35923846D01*
X51236366Y-35758878D01*
X51359006Y-35571164D01*
X51449076Y-35365824D01*
X51504121Y-35148460D01*
X51504122Y-35148452D01*
X51522637Y-34925006D01*
X51522637Y-34924993D01*
X51504122Y-34701547D01*
X51504121Y-34701544D01*
X51504121Y-34701540D01*
X51449076Y-34484176D01*
X51359006Y-34278836D01*
X51359003Y-34278832D01*
X51236368Y-34091125D01*
X51236367Y-34091124D01*
X51236366Y-34091122D01*
X51084503Y-33926154D01*
X51084498Y-33926150D01*
X51084496Y-33926148D01*
X50907565Y-33788437D01*
X50907559Y-33788433D01*
X50897704Y-33783100D01*
X50862511Y-33764054D01*
X50812922Y-33714835D01*
X50797814Y-33646618D01*
X50821985Y-33581063D01*
X50862511Y-33545945D01*
X50907557Y-33521568D01*
X51084503Y-33383846D01*
X51236366Y-33218878D01*
X51359006Y-33031164D01*
X51449076Y-32825824D01*
X51504121Y-32608460D01*
X51508504Y-32555565D01*
X51522637Y-32385006D01*
X51522637Y-32384993D01*
X51504122Y-32161547D01*
X51504121Y-32161544D01*
X51504121Y-32161540D01*
X51449076Y-31944176D01*
X51359006Y-31738836D01*
X51302074Y-31651696D01*
X51236368Y-31551125D01*
X51236367Y-31551124D01*
X51236366Y-31551122D01*
X51084503Y-31386154D01*
X51039975Y-31351497D01*
X50940828Y-31274327D01*
X50900016Y-31217617D01*
X50896341Y-31147844D01*
X50930973Y-31087161D01*
X50957986Y-31067413D01*
X50962161Y-31065153D01*
X50962168Y-31065149D01*
X51001207Y-31034762D01*
X51001208Y-31034760D01*
X50400977Y-30434529D01*
X50473345Y-30405877D01*
X50603142Y-30311574D01*
X50705410Y-30187954D01*
X50755359Y-30081806D01*
X51354117Y-30680564D01*
X51446815Y-30538679D01*
X51543508Y-30318240D01*
X51602600Y-30084889D01*
X51622478Y-29845005D01*
X51622478Y-29844994D01*
X51602600Y-29605110D01*
X51543508Y-29371759D01*
X51446815Y-29151320D01*
X51354117Y-29009434D01*
X50755643Y-29607908D01*
X50744132Y-29572481D01*
X50658165Y-29437019D01*
X50541210Y-29327191D01*
X50404443Y-29252002D01*
X51001208Y-28655237D01*
X51001208Y-28655236D01*
X50962166Y-28624849D01*
X50962162Y-28624846D01*
X50957976Y-28622581D01*
X50908384Y-28573363D01*
X50893274Y-28505147D01*
X50917443Y-28439591D01*
X50940827Y-28415672D01*
X51084503Y-28303846D01*
X51236366Y-28138878D01*
X51359006Y-27951164D01*
X51449076Y-27745824D01*
X51504121Y-27528460D01*
X51504122Y-27528451D01*
X51522285Y-27309260D01*
X51547438Y-27244075D01*
X51603840Y-27202837D01*
X51645861Y-27195500D01*
X52414088Y-27195500D01*
X52481127Y-27215185D01*
X52526882Y-27267989D01*
X52536826Y-27337147D01*
X52507801Y-27400703D01*
X52505358Y-27403437D01*
X52440132Y-27474291D01*
X52419266Y-27496959D01*
X52292325Y-27691258D01*
X52199092Y-27903806D01*
X52142116Y-28128798D01*
X52142114Y-28128809D01*
X52122950Y-28360100D01*
X52122950Y-28360113D01*
X52142114Y-28591404D01*
X52142116Y-28591415D01*
X52199092Y-28816407D01*
X52292325Y-29028955D01*
X52419266Y-29223254D01*
X52419269Y-29223258D01*
X52419271Y-29223260D01*
X52576466Y-29394020D01*
X52576469Y-29394022D01*
X52576472Y-29394025D01*
X52759615Y-29536571D01*
X52759621Y-29536575D01*
X52759624Y-29536577D01*
X52963747Y-29647043D01*
X53045180Y-29674999D01*
X53183265Y-29722404D01*
X53183267Y-29722404D01*
X53183269Y-29722405D01*
X53412201Y-29760607D01*
X53412202Y-29760607D01*
X53644298Y-29760607D01*
X53644299Y-29760607D01*
X53873231Y-29722405D01*
X54092753Y-29647043D01*
X54296876Y-29536577D01*
X54480034Y-29394020D01*
X54637229Y-29223260D01*
X54764174Y-29028956D01*
X54857407Y-28816407D01*
X54857408Y-28816404D01*
X54858794Y-28812368D01*
X54899180Y-28755352D01*
X54963980Y-28729222D01*
X55032619Y-28742274D01*
X55063756Y-28764950D01*
X56588181Y-30289374D01*
X56621666Y-30350697D01*
X56624500Y-30377055D01*
X56624500Y-31092060D01*
X56604815Y-31159099D01*
X56588181Y-31179741D01*
X56520184Y-31247737D01*
X56424211Y-31400476D01*
X56364631Y-31570745D01*
X56364630Y-31570750D01*
X56344435Y-31749996D01*
X56344435Y-31750003D01*
X56364630Y-31929249D01*
X56364631Y-31929254D01*
X56424211Y-32099523D01*
X56463184Y-32161547D01*
X56520184Y-32252262D01*
X56647738Y-32379816D01*
X56800478Y-32475789D01*
X56970745Y-32535368D01*
X56970750Y-32535369D01*
X57149996Y-32555565D01*
X57150000Y-32555565D01*
X57150004Y-32555565D01*
X57329249Y-32535369D01*
X57329252Y-32535368D01*
X57329255Y-32535368D01*
X57499522Y-32475789D01*
X57652262Y-32379816D01*
X57779816Y-32252262D01*
X57875789Y-32099522D01*
X57935368Y-31929255D01*
X57951399Y-31786979D01*
X57955565Y-31750003D01*
X65234435Y-31750003D01*
X65254630Y-31929249D01*
X65254631Y-31929254D01*
X65314211Y-32099523D01*
X65353184Y-32161547D01*
X65410184Y-32252262D01*
X65537738Y-32379816D01*
X65690478Y-32475789D01*
X65860745Y-32535368D01*
X65860750Y-32535369D01*
X66039996Y-32555565D01*
X66040000Y-32555565D01*
X66040004Y-32555565D01*
X66219249Y-32535369D01*
X66219252Y-32535368D01*
X66219255Y-32535368D01*
X66389522Y-32475789D01*
X66542262Y-32379816D01*
X66669816Y-32252262D01*
X66765789Y-32099522D01*
X66825368Y-31929255D01*
X66845565Y-31750000D01*
X66845565Y-31749996D01*
X66845565Y-31743035D01*
X66847729Y-31743035D01*
X66857974Y-31684464D01*
X66881468Y-31651699D01*
X67892004Y-30641163D01*
X67894990Y-30638277D01*
X67939719Y-30596505D01*
X67959952Y-30563230D01*
X67967083Y-30552754D01*
X67990614Y-30521725D01*
X67996723Y-30506232D01*
X68006126Y-30487301D01*
X68014776Y-30473078D01*
X68025280Y-30435585D01*
X68029321Y-30423568D01*
X68043609Y-30387339D01*
X68045311Y-30370773D01*
X68049257Y-30350010D01*
X68053750Y-30333978D01*
X68053750Y-30295046D01*
X68054400Y-30282366D01*
X68058381Y-30243641D01*
X68055553Y-30227237D01*
X68053750Y-30206170D01*
X68053750Y-29742038D01*
X68073435Y-29674999D01*
X68118732Y-29632983D01*
X68296876Y-29536577D01*
X68480034Y-29394020D01*
X68637229Y-29223260D01*
X68764174Y-29028956D01*
X68857407Y-28816407D01*
X68914384Y-28591412D01*
X68914385Y-28591404D01*
X68933550Y-28360113D01*
X68933550Y-28360100D01*
X68914385Y-28128809D01*
X68914383Y-28128798D01*
X68857407Y-27903806D01*
X68764174Y-27691258D01*
X68637233Y-27496959D01*
X68637230Y-27496956D01*
X68637229Y-27496954D01*
X68480034Y-27326194D01*
X68480029Y-27326190D01*
X68480027Y-27326188D01*
X68296884Y-27183642D01*
X68296878Y-27183638D01*
X68092754Y-27073171D01*
X68092745Y-27073168D01*
X67873234Y-26997809D01*
X67701532Y-26969157D01*
X67644299Y-26959607D01*
X67412201Y-26959607D01*
X67366414Y-26967247D01*
X67183265Y-26997809D01*
X66963754Y-27073168D01*
X66963745Y-27073171D01*
X66759621Y-27183638D01*
X66759615Y-27183642D01*
X66576472Y-27326188D01*
X66576469Y-27326191D01*
X66419266Y-27496959D01*
X66292325Y-27691258D01*
X66199092Y-27903806D01*
X66142116Y-28128798D01*
X66142114Y-28128809D01*
X66122950Y-28360100D01*
X66122950Y-28360113D01*
X66142114Y-28591404D01*
X66142116Y-28591415D01*
X66199092Y-28816407D01*
X66292325Y-29028955D01*
X66419266Y-29223254D01*
X66419269Y-29223258D01*
X66419271Y-29223260D01*
X66576466Y-29394020D01*
X66576469Y-29394022D01*
X66576472Y-29394025D01*
X66759615Y-29536571D01*
X66759622Y-29536575D01*
X66759624Y-29536577D01*
X66937767Y-29632983D01*
X66987358Y-29682202D01*
X67002750Y-29742038D01*
X67002750Y-29992718D01*
X66983065Y-30059757D01*
X66966431Y-30080399D01*
X66138301Y-30908528D01*
X66076978Y-30942013D01*
X66046963Y-30943545D01*
X66046963Y-30944435D01*
X66039996Y-30944435D01*
X65860750Y-30964630D01*
X65860745Y-30964631D01*
X65690476Y-31024211D01*
X65537737Y-31120184D01*
X65410184Y-31247737D01*
X65314211Y-31400476D01*
X65254631Y-31570745D01*
X65254630Y-31570750D01*
X65234435Y-31749996D01*
X65234435Y-31750003D01*
X57955565Y-31750003D01*
X57955565Y-31749996D01*
X57935369Y-31570750D01*
X57935368Y-31570745D01*
X57875788Y-31400476D01*
X57790894Y-31265369D01*
X57779816Y-31247738D01*
X57711819Y-31179741D01*
X57678334Y-31118418D01*
X57675500Y-31092060D01*
X57675500Y-30119132D01*
X57675572Y-30114899D01*
X57676597Y-30084889D01*
X57677660Y-30053779D01*
X57668443Y-30015958D01*
X57666072Y-30003483D01*
X57664592Y-29992718D01*
X57660771Y-29964913D01*
X57654137Y-29949640D01*
X57647397Y-29929598D01*
X57646599Y-29926325D01*
X57643457Y-29913430D01*
X57643456Y-29913428D01*
X57643456Y-29913427D01*
X57624382Y-29879505D01*
X57618733Y-29868132D01*
X57603219Y-29832416D01*
X57603218Y-29832414D01*
X57592708Y-29819496D01*
X57580813Y-29802018D01*
X57572657Y-29787512D01*
X57545133Y-29759988D01*
X57536627Y-29750563D01*
X57512055Y-29720360D01*
X57512050Y-29720356D01*
X57498450Y-29710756D01*
X57482278Y-29697133D01*
X54091416Y-26306271D01*
X54088474Y-26303227D01*
X54046729Y-26258529D01*
X54046727Y-26258528D01*
X54013465Y-26238301D01*
X54002967Y-26231156D01*
X53971952Y-26207636D01*
X53963382Y-26204256D01*
X53956461Y-26201527D01*
X53937529Y-26192124D01*
X53923305Y-26183474D01*
X53885818Y-26172970D01*
X53873789Y-26168925D01*
X53837567Y-26154641D01*
X53837559Y-26154640D01*
X53820998Y-26152937D01*
X53800231Y-26148990D01*
X53784207Y-26144500D01*
X53784204Y-26144500D01*
X53745272Y-26144500D01*
X53732593Y-26143850D01*
X53693868Y-26139869D01*
X53693864Y-26139869D01*
X53684552Y-26141474D01*
X53677461Y-26142697D01*
X53656396Y-26144500D01*
X50894737Y-26144500D01*
X50835719Y-26129555D01*
X50710357Y-26061712D01*
X50710349Y-26061709D01*
X50498282Y-25988906D01*
X50277113Y-25952000D01*
X50052887Y-25952000D01*
X49831717Y-25988906D01*
X49619650Y-26061709D01*
X49619642Y-26061712D01*
X49422440Y-26168433D01*
X49422434Y-26168437D01*
X49245503Y-26306148D01*
X49245500Y-26306151D01*
X49245497Y-26306153D01*
X49245497Y-26306154D01*
X49169565Y-26388638D01*
X49093631Y-26471125D01*
X48970994Y-26658834D01*
X48880923Y-26864176D01*
X48825879Y-27081539D01*
X48825877Y-27081547D01*
X48807363Y-27304993D01*
X48807363Y-27305006D01*
X48825877Y-27528452D01*
X48825879Y-27528460D01*
X48880923Y-27745823D01*
X48970994Y-27951165D01*
X49093631Y-28138874D01*
X49093634Y-28138878D01*
X49245497Y-28303846D01*
X49245500Y-28303848D01*
X49245503Y-28303851D01*
X49389170Y-28415672D01*
X49429983Y-28472382D01*
X49433658Y-28542155D01*
X49399026Y-28602838D01*
X49372028Y-28622578D01*
X49367841Y-28624843D01*
X49367826Y-28624853D01*
X49328791Y-28655235D01*
X49328791Y-28655237D01*
X49929023Y-29255469D01*
X49856655Y-29284123D01*
X49726858Y-29378426D01*
X49624590Y-29502046D01*
X49574640Y-29608194D01*
X48975881Y-29009435D01*
X48883185Y-29151317D01*
X48786491Y-29371759D01*
X48727399Y-29605110D01*
X48707522Y-29844994D01*
X48707522Y-29845005D01*
X48727399Y-30084889D01*
X48786491Y-30318240D01*
X48883185Y-30538682D01*
X48975880Y-30680563D01*
X49574356Y-30082089D01*
X49585868Y-30117519D01*
X49671835Y-30252981D01*
X49788790Y-30362809D01*
X49925555Y-30437996D01*
X49328790Y-31034761D01*
X49328791Y-31034762D01*
X49367832Y-31065149D01*
X49367833Y-31065150D01*
X49372018Y-31067415D01*
X49421612Y-31116631D01*
X49436725Y-31184847D01*
X49412559Y-31250404D01*
X49389171Y-31274327D01*
X49245499Y-31386152D01*
X49093631Y-31551125D01*
X48970994Y-31738834D01*
X48880923Y-31944176D01*
X48825879Y-32161539D01*
X48825877Y-32161547D01*
X48807363Y-32384993D01*
X48807363Y-32385006D01*
X48825877Y-32608452D01*
X48825879Y-32608460D01*
X48880923Y-32825823D01*
X48970994Y-33031165D01*
X49093631Y-33218874D01*
X49093634Y-33218878D01*
X49245497Y-33383846D01*
X49245500Y-33383848D01*
X49245503Y-33383851D01*
X49422434Y-33521562D01*
X49422445Y-33521569D01*
X49467488Y-33545946D01*
X49517078Y-33595166D01*
X49532185Y-33663383D01*
X49508014Y-33728938D01*
X49467488Y-33764054D01*
X49422445Y-33788430D01*
X49422434Y-33788437D01*
X49245503Y-33926148D01*
X49245500Y-33926151D01*
X49093631Y-34091125D01*
X48970995Y-34278832D01*
X48950608Y-34325311D01*
X48905651Y-34378796D01*
X48838915Y-34399486D01*
X48837052Y-34399500D01*
X47866531Y-34399500D01*
X47799492Y-34379815D01*
X47778850Y-34363181D01*
X45263971Y-31848302D01*
X45230486Y-31786979D01*
X45228958Y-31756965D01*
X45228065Y-31756965D01*
X45228065Y-31749997D01*
X45207869Y-31570750D01*
X45207868Y-31570745D01*
X45148288Y-31400476D01*
X45063394Y-31265369D01*
X45052316Y-31247738D01*
X44924762Y-31120184D01*
X44916512Y-31115000D01*
X44772023Y-31024211D01*
X44601754Y-30964631D01*
X44601749Y-30964630D01*
X44422504Y-30944435D01*
X44422496Y-30944435D01*
X44243250Y-30964630D01*
X44243245Y-30964631D01*
X44072976Y-31024211D01*
X44054585Y-31035767D01*
X43987348Y-31054765D01*
X43920513Y-31034395D01*
X43875301Y-30981126D01*
X43866065Y-30911870D01*
X43883624Y-30864797D01*
X43896789Y-30843846D01*
X43905789Y-30829522D01*
X43965368Y-30659255D01*
X43965369Y-30659249D01*
X43985565Y-30480003D01*
X43985565Y-30479996D01*
X43965369Y-30300750D01*
X43965368Y-30300745D01*
X43905788Y-30130476D01*
X43829951Y-30009783D01*
X43809816Y-29977738D01*
X43682262Y-29850184D01*
X43674001Y-29844993D01*
X43529523Y-29754211D01*
X43359254Y-29694631D01*
X43359249Y-29694630D01*
X43180004Y-29674435D01*
X43173037Y-29674435D01*
X43173037Y-29672277D01*
X43114432Y-29662009D01*
X43081697Y-29638528D01*
X40384440Y-26941271D01*
X40381498Y-26938227D01*
X40339753Y-26893529D01*
X40339751Y-26893528D01*
X40306489Y-26873301D01*
X40295991Y-26866156D01*
X40264976Y-26842636D01*
X40256406Y-26839256D01*
X40249485Y-26836527D01*
X40230553Y-26827124D01*
X40216329Y-26818474D01*
X40178842Y-26807970D01*
X40166813Y-26803925D01*
X40130591Y-26789641D01*
X40130583Y-26789640D01*
X40114022Y-26787937D01*
X40093255Y-26783990D01*
X40077231Y-26779500D01*
X40077228Y-26779500D01*
X40038296Y-26779500D01*
X40025617Y-26778850D01*
X39986892Y-26774869D01*
X39986888Y-26774869D01*
X39977576Y-26776474D01*
X39970485Y-26777697D01*
X39949420Y-26779500D01*
X36252948Y-26779500D01*
X36185909Y-26759815D01*
X36140154Y-26707011D01*
X36139392Y-26705311D01*
X36119004Y-26658832D01*
X35996368Y-26471125D01*
X35996367Y-26471124D01*
X35996366Y-26471122D01*
X35844503Y-26306154D01*
X35844498Y-26306150D01*
X35844496Y-26306148D01*
X35667565Y-26168437D01*
X35667559Y-26168433D01*
X35470357Y-26061712D01*
X35470349Y-26061709D01*
X35258282Y-25988906D01*
X35037113Y-25952000D01*
X34812887Y-25952000D01*
X34591717Y-25988906D01*
X34379650Y-26061709D01*
X34379642Y-26061712D01*
X34182440Y-26168433D01*
X34182434Y-26168437D01*
X34005503Y-26306148D01*
X34005500Y-26306151D01*
X34005497Y-26306153D01*
X34005497Y-26306154D01*
X33929565Y-26388638D01*
X33853631Y-26471125D01*
X33730994Y-26658834D01*
X33640923Y-26864176D01*
X33585879Y-27081539D01*
X33585877Y-27081547D01*
X33567363Y-27304993D01*
X33567363Y-27305006D01*
X33585877Y-27528452D01*
X33585879Y-27528460D01*
X33640923Y-27745823D01*
X33730994Y-27951165D01*
X33853631Y-28138874D01*
X33853634Y-28138878D01*
X34005497Y-28303846D01*
X34005500Y-28303848D01*
X34005503Y-28303851D01*
X34182434Y-28441562D01*
X34182445Y-28441569D01*
X34227488Y-28465946D01*
X34277078Y-28515166D01*
X34292185Y-28583383D01*
X34268014Y-28648938D01*
X34227488Y-28684054D01*
X34182445Y-28708430D01*
X34182434Y-28708437D01*
X34005503Y-28846148D01*
X34005500Y-28846151D01*
X33853631Y-29011125D01*
X33730994Y-29198834D01*
X33640923Y-29404176D01*
X33585879Y-29621539D01*
X33585877Y-29621547D01*
X33567363Y-29844993D01*
X33567363Y-29845006D01*
X33585877Y-30068452D01*
X33585879Y-30068460D01*
X33640923Y-30285823D01*
X33730994Y-30491165D01*
X33853631Y-30678874D01*
X33853634Y-30678878D01*
X34005497Y-30843846D01*
X34005500Y-30843848D01*
X34005503Y-30843851D01*
X34182434Y-30981562D01*
X34182441Y-30981566D01*
X34182443Y-30981568D01*
X34187150Y-30984115D01*
X34227488Y-31005946D01*
X34277078Y-31055166D01*
X34292185Y-31123383D01*
X34268014Y-31188938D01*
X34227488Y-31224054D01*
X34182445Y-31248430D01*
X34182434Y-31248437D01*
X34005503Y-31386148D01*
X34005500Y-31386151D01*
X33853631Y-31551125D01*
X33730994Y-31738834D01*
X33640923Y-31944176D01*
X33585879Y-32161539D01*
X33585877Y-32161547D01*
X33567363Y-32384993D01*
X33567363Y-32385006D01*
X33585877Y-32608452D01*
X33585879Y-32608460D01*
X33640923Y-32825823D01*
X33730994Y-33031165D01*
X33853631Y-33218874D01*
X33853634Y-33218878D01*
X34005497Y-33383846D01*
X34005500Y-33383848D01*
X34005503Y-33383851D01*
X34182434Y-33521562D01*
X34182445Y-33521569D01*
X34227488Y-33545946D01*
X34277078Y-33595166D01*
X34292185Y-33663383D01*
X34268014Y-33728938D01*
X34227488Y-33764054D01*
X34182445Y-33788430D01*
X34182434Y-33788437D01*
X34005503Y-33926148D01*
X34005500Y-33926151D01*
X33853631Y-34091125D01*
X33730994Y-34278834D01*
X33640923Y-34484176D01*
X33585879Y-34701539D01*
X33585877Y-34701547D01*
X33567363Y-34924993D01*
X33567363Y-34925006D01*
X33585877Y-35148452D01*
X33585879Y-35148460D01*
X33640923Y-35365823D01*
X33730994Y-35571165D01*
X33853631Y-35758874D01*
X33853634Y-35758878D01*
X34005497Y-35923846D01*
X34005500Y-35923848D01*
X34005503Y-35923851D01*
X34182434Y-36061562D01*
X34182441Y-36061566D01*
X34182443Y-36061568D01*
X34187150Y-36064115D01*
X34227488Y-36085946D01*
X34277078Y-36135166D01*
X34292185Y-36203383D01*
X34268014Y-36268938D01*
X34227488Y-36304054D01*
X34182445Y-36328430D01*
X34182434Y-36328437D01*
X34005503Y-36466148D01*
X34005500Y-36466151D01*
X33853631Y-36631125D01*
X33730994Y-36818834D01*
X33640923Y-37024176D01*
X33585879Y-37241539D01*
X33585877Y-37241547D01*
X33567363Y-37464993D01*
X33567363Y-37465006D01*
X33585877Y-37688452D01*
X33585879Y-37688460D01*
X33640923Y-37905823D01*
X33730994Y-38111165D01*
X33853631Y-38298874D01*
X33853634Y-38298878D01*
X34005497Y-38463846D01*
X34005500Y-38463848D01*
X34005503Y-38463851D01*
X34182434Y-38601562D01*
X34182445Y-38601569D01*
X34227488Y-38625946D01*
X34277078Y-38675166D01*
X34292185Y-38743383D01*
X34268014Y-38808938D01*
X34227488Y-38844054D01*
X34182445Y-38868430D01*
X34182434Y-38868437D01*
X34005503Y-39006148D01*
X34005500Y-39006151D01*
X33853631Y-39171125D01*
X33730994Y-39358834D01*
X33640923Y-39564176D01*
X33585879Y-39781539D01*
X33585877Y-39781547D01*
X33567363Y-40004993D01*
X33567363Y-40005006D01*
X33585877Y-40228452D01*
X33585879Y-40228460D01*
X33640923Y-40445823D01*
X33730994Y-40651165D01*
X33853631Y-40838874D01*
X33853634Y-40838878D01*
X34005497Y-41003846D01*
X34005500Y-41003848D01*
X34005503Y-41003851D01*
X34182434Y-41141562D01*
X34182445Y-41141569D01*
X34227488Y-41165946D01*
X34277078Y-41215166D01*
X34292185Y-41283383D01*
X34268014Y-41348938D01*
X34227488Y-41384054D01*
X34182445Y-41408430D01*
X34182434Y-41408437D01*
X34005503Y-41546148D01*
X34005500Y-41546151D01*
X33853631Y-41711125D01*
X33730994Y-41898834D01*
X33640923Y-42104176D01*
X33585879Y-42321539D01*
X33585877Y-42321547D01*
X33567363Y-42544993D01*
X33567363Y-42545006D01*
X33585877Y-42768452D01*
X33585879Y-42768460D01*
X33640923Y-42985823D01*
X33730994Y-43191165D01*
X33853631Y-43378874D01*
X33853634Y-43378878D01*
X34005497Y-43543846D01*
X34005500Y-43543848D01*
X34005503Y-43543851D01*
X34182434Y-43681562D01*
X34182445Y-43681569D01*
X34227488Y-43705946D01*
X34277078Y-43755166D01*
X34292185Y-43823383D01*
X34268014Y-43888938D01*
X34227488Y-43924054D01*
X34182445Y-43948430D01*
X34182434Y-43948437D01*
X34005503Y-44086148D01*
X34005500Y-44086151D01*
X33853631Y-44251125D01*
X33730994Y-44438834D01*
X33640923Y-44644176D01*
X33585879Y-44861539D01*
X33585877Y-44861547D01*
X33567363Y-45084993D01*
X33567363Y-45085006D01*
X33274500Y-45085006D01*
X33274500Y-25778500D01*
X33294185Y-25711461D01*
X33346989Y-25665706D01*
X33398500Y-25654500D01*
X69217500Y-25654500D01*
X69284539Y-25674185D01*
G37*
%TD.AperFunction*%
%TD*%
M02*
