M48
; DRILL file {KiCad 7.0.10} date Sat Jan 20 13:40:02 2024
; FORMAT={-:-/ absolute / inch / decimal}
; #@! TF.CreationDate,2024-01-20T13:40:02-08:00
; #@! TF.GenerationSoftware,Kicad,Pcbnew,7.0.10
; #@! TF.FileFunction,Plated,1,2,PTH
FMAT,2
INCH
; #@! TA.AperFunction,Plated,PTH,ViaDrill
T1C0.0157
; #@! TA.AperFunction,Plated,PTH,ComponentDrill
T2C0.0315
; #@! TA.AperFunction,Plated,PTH,ComponentDrill
T3C0.0394
; #@! TA.AperFunction,Plated,PTH,ComponentDrill
T4C0.0500
%
G90
G05
T1
X1.63Y-1.49
X1.7Y-1.2
X1.72Y-1.49
X1.7489Y-1.25
X2.25Y-1.25
X2.55Y-1.8
X2.6Y-1.25
X2.6Y-1.4
T2
X1.41Y-2.07
X1.49Y-2.07
X1.7662Y-2.0204
X1.8646Y-2.0204
X1.9631Y-2.0204
T3
X2.1074Y-1.1165
X2.1074Y-2.0221
X2.2074Y-2.0221
X2.5586Y-2.0221
X2.6586Y-1.1165
X2.6586Y-2.0221
T4
X1.375Y-1.075
X1.375Y-1.175
X1.375Y-1.275
X1.375Y-1.375
X1.375Y-1.475
X1.375Y-1.575
X1.375Y-1.675
X1.375Y-1.775
X1.975Y-1.075
X1.975Y-1.175
X1.975Y-1.275
X1.975Y-1.375
X1.975Y-1.475
X1.975Y-1.575
X1.975Y-1.675
X1.975Y-1.775
M30
