%TF.GenerationSoftware,KiCad,Pcbnew,7.0.10*%
%TF.CreationDate,2024-01-20T13:39:50-08:00*%
%TF.ProjectId,caribou_slime,63617269-626f-4755-9f73-6c696d652e6b,rev?*%
%TF.SameCoordinates,Original*%
%TF.FileFunction,Soldermask,Bot*%
%TF.FilePolarity,Negative*%
%FSLAX46Y46*%
G04 Gerber Fmt 4.6, Leading zero omitted, Abs format (unit mm)*
G04 Created by KiCad (PCBNEW 7.0.10) date 2024-01-20 13:39:50*
%MOMM*%
%LPD*%
G01*
G04 APERTURE LIST*
G04 Aperture macros list*
%AMRoundRect*
0 Rectangle with rounded corners*
0 $1 Rounding radius*
0 $2 $3 $4 $5 $6 $7 $8 $9 X,Y pos of 4 corners*
0 Add a 4 corners polygon primitive as box body*
4,1,4,$2,$3,$4,$5,$6,$7,$8,$9,$2,$3,0*
0 Add four circle primitives for the rounded corners*
1,1,$1+$1,$2,$3*
1,1,$1+$1,$4,$5*
1,1,$1+$1,$6,$7*
1,1,$1+$1,$8,$9*
0 Add four rect primitives between the rounded corners*
20,1,$1+$1,$2,$3,$4,$5,0*
20,1,$1+$1,$4,$5,$6,$7,0*
20,1,$1+$1,$6,$7,$8,$9,0*
20,1,$1+$1,$8,$9,$2,$3,0*%
G04 Aperture macros list end*
%ADD10C,2.109000*%
%ADD11RoundRect,0.102000X-0.654000X-0.654000X0.654000X-0.654000X0.654000X0.654000X-0.654000X0.654000X0*%
%ADD12C,1.512000*%
%ADD13C,2.000000*%
%ADD14R,1.500000X1.500000*%
%ADD15RoundRect,0.250000X0.250000X0.475000X-0.250000X0.475000X-0.250000X-0.475000X0.250000X-0.475000X0*%
%ADD16RoundRect,0.225000X-0.225000X-0.375000X0.225000X-0.375000X0.225000X0.375000X-0.225000X0.375000X0*%
%ADD17RoundRect,0.250000X-0.450000X0.262500X-0.450000X-0.262500X0.450000X-0.262500X0.450000X0.262500X0*%
%ADD18RoundRect,0.102000X0.237500X0.125000X-0.237500X0.125000X-0.237500X-0.125000X0.237500X-0.125000X0*%
%ADD19RoundRect,0.102000X0.125000X-0.237500X0.125000X0.237500X-0.125000X0.237500X-0.125000X-0.237500X0*%
%ADD20RoundRect,0.250000X-0.262500X-0.450000X0.262500X-0.450000X0.262500X0.450000X-0.262500X0.450000X0*%
G04 APERTURE END LIST*
D10*
%TO.C,U1*%
X50165000Y-45085000D03*
X50165000Y-42545000D03*
X50165000Y-40005000D03*
X50165000Y-37465000D03*
X50165000Y-32385000D03*
X50165000Y-34925000D03*
X34925000Y-27305000D03*
X50165000Y-27305000D03*
X34925000Y-29845000D03*
X34925000Y-32385000D03*
X34925000Y-34925000D03*
X34925000Y-37465000D03*
X34925000Y-40005000D03*
X34925000Y-42545000D03*
X34925000Y-45085000D03*
X50165000Y-29845000D03*
%TD*%
D11*
%TO.C,S1*%
X44861538Y-51318108D03*
D12*
X47361538Y-51318108D03*
X49861538Y-51318108D03*
%TD*%
D13*
%TO.C,U3*%
X67528250Y-28360107D03*
X53528250Y-28360107D03*
X67528250Y-51360107D03*
X53528250Y-51360107D03*
X64988250Y-51360107D03*
X56068250Y-51360107D03*
%TD*%
D14*
%TO.C,B-*%
X37846000Y-52578000D03*
%TD*%
%TO.C,B+*%
X35814000Y-52578000D03*
%TD*%
D15*
%TO.C,C1*%
X40574000Y-35052000D03*
X38674000Y-35052000D03*
%TD*%
D16*
%TO.C,D1*%
X58802000Y-32512000D03*
X62102000Y-32512000D03*
%TD*%
D17*
%TO.C,R1*%
X41910000Y-28572870D03*
X41910000Y-30397870D03*
%TD*%
D18*
%TO.C,U2*%
X45085000Y-34925000D03*
X45085000Y-35425000D03*
X45085000Y-35925000D03*
X45085000Y-36425000D03*
D19*
X44422500Y-36587500D03*
X43922500Y-36587500D03*
X43422500Y-36587500D03*
D18*
X42760000Y-36425000D03*
X42760000Y-35925000D03*
X42760000Y-35425000D03*
X42760000Y-34925000D03*
D19*
X43422500Y-34762500D03*
X43922500Y-34762500D03*
X44422500Y-34762500D03*
%TD*%
D17*
%TO.C,R2*%
X45720000Y-28575000D03*
X45720000Y-30400000D03*
%TD*%
D16*
%TO.C,D2*%
X58802000Y-35052000D03*
X62102000Y-35052000D03*
%TD*%
D15*
%TO.C,C2*%
X44450000Y-39116000D03*
X42550000Y-39116000D03*
%TD*%
D20*
%TO.C,R3*%
X60151000Y-44958000D03*
X61976000Y-44958000D03*
%TD*%
M02*
