%TF.GenerationSoftware,KiCad,Pcbnew,7.0.10*%
%TF.CreationDate,2024-01-20T13:39:50-08:00*%
%TF.ProjectId,caribou_slime,63617269-626f-4755-9f73-6c696d652e6b,rev?*%
%TF.SameCoordinates,Original*%
%TF.FileFunction,Legend,Bot*%
%TF.FilePolarity,Positive*%
%FSLAX46Y46*%
G04 Gerber Fmt 4.6, Leading zero omitted, Abs format (unit mm)*
G04 Created by KiCad (PCBNEW 7.0.10) date 2024-01-20 13:39:50*
%MOMM*%
%LPD*%
G01*
G04 APERTURE LIST*
%ADD10C,0.150000*%
%ADD11C,0.120000*%
%ADD12C,0.127000*%
G04 APERTURE END LIST*
D10*
X59944000Y-30226000D02*
X59944000Y-30734000D01*
X60706000Y-30226000D02*
X59944000Y-30734000D01*
X60706000Y-30734000D02*
X61214000Y-30734000D01*
X59944000Y-30734000D02*
X60706000Y-31242000D01*
X59944000Y-30734000D02*
X59436000Y-30734000D01*
X60706000Y-31242000D02*
X60706000Y-30226000D01*
X59944000Y-31242000D02*
X59944000Y-30734000D01*
X59944000Y-30734000D02*
X59944000Y-30226000D01*
X39790666Y-33731580D02*
X39838285Y-33779200D01*
X39838285Y-33779200D02*
X39981142Y-33826819D01*
X39981142Y-33826819D02*
X40076380Y-33826819D01*
X40076380Y-33826819D02*
X40219237Y-33779200D01*
X40219237Y-33779200D02*
X40314475Y-33683961D01*
X40314475Y-33683961D02*
X40362094Y-33588723D01*
X40362094Y-33588723D02*
X40409713Y-33398247D01*
X40409713Y-33398247D02*
X40409713Y-33255390D01*
X40409713Y-33255390D02*
X40362094Y-33064914D01*
X40362094Y-33064914D02*
X40314475Y-32969676D01*
X40314475Y-32969676D02*
X40219237Y-32874438D01*
X40219237Y-32874438D02*
X40076380Y-32826819D01*
X40076380Y-32826819D02*
X39981142Y-32826819D01*
X39981142Y-32826819D02*
X39838285Y-32874438D01*
X39838285Y-32874438D02*
X39790666Y-32922057D01*
X38838285Y-33826819D02*
X39409713Y-33826819D01*
X39123999Y-33826819D02*
X39123999Y-32826819D01*
X39123999Y-32826819D02*
X39219237Y-32969676D01*
X39219237Y-32969676D02*
X39314475Y-33064914D01*
X39314475Y-33064914D02*
X39409713Y-33112533D01*
X64492094Y-32966819D02*
X64492094Y-31966819D01*
X64492094Y-31966819D02*
X64253999Y-31966819D01*
X64253999Y-31966819D02*
X64111142Y-32014438D01*
X64111142Y-32014438D02*
X64015904Y-32109676D01*
X64015904Y-32109676D02*
X63968285Y-32204914D01*
X63968285Y-32204914D02*
X63920666Y-32395390D01*
X63920666Y-32395390D02*
X63920666Y-32538247D01*
X63920666Y-32538247D02*
X63968285Y-32728723D01*
X63968285Y-32728723D02*
X64015904Y-32823961D01*
X64015904Y-32823961D02*
X64111142Y-32919200D01*
X64111142Y-32919200D02*
X64253999Y-32966819D01*
X64253999Y-32966819D02*
X64492094Y-32966819D01*
X62968285Y-32966819D02*
X63539713Y-32966819D01*
X63253999Y-32966819D02*
X63253999Y-31966819D01*
X63253999Y-31966819D02*
X63349237Y-32109676D01*
X63349237Y-32109676D02*
X63444475Y-32204914D01*
X63444475Y-32204914D02*
X63539713Y-32252533D01*
X40713819Y-29318703D02*
X40237628Y-28985370D01*
X40713819Y-28747275D02*
X39713819Y-28747275D01*
X39713819Y-28747275D02*
X39713819Y-29128227D01*
X39713819Y-29128227D02*
X39761438Y-29223465D01*
X39761438Y-29223465D02*
X39809057Y-29271084D01*
X39809057Y-29271084D02*
X39904295Y-29318703D01*
X39904295Y-29318703D02*
X40047152Y-29318703D01*
X40047152Y-29318703D02*
X40142390Y-29271084D01*
X40142390Y-29271084D02*
X40190009Y-29223465D01*
X40190009Y-29223465D02*
X40237628Y-29128227D01*
X40237628Y-29128227D02*
X40237628Y-28747275D01*
X40713819Y-30271084D02*
X40713819Y-29699656D01*
X40713819Y-29985370D02*
X39713819Y-29985370D01*
X39713819Y-29985370D02*
X39856676Y-29890132D01*
X39856676Y-29890132D02*
X39951914Y-29794894D01*
X39951914Y-29794894D02*
X39999533Y-29699656D01*
X44418119Y-33291876D02*
X44418119Y-33809971D01*
X44418119Y-33809971D02*
X44387642Y-33870923D01*
X44387642Y-33870923D02*
X44357166Y-33901400D01*
X44357166Y-33901400D02*
X44296214Y-33931876D01*
X44296214Y-33931876D02*
X44174309Y-33931876D01*
X44174309Y-33931876D02*
X44113357Y-33901400D01*
X44113357Y-33901400D02*
X44082880Y-33870923D01*
X44082880Y-33870923D02*
X44052404Y-33809971D01*
X44052404Y-33809971D02*
X44052404Y-33291876D01*
X43778119Y-33352828D02*
X43747643Y-33322352D01*
X43747643Y-33322352D02*
X43686690Y-33291876D01*
X43686690Y-33291876D02*
X43534309Y-33291876D01*
X43534309Y-33291876D02*
X43473357Y-33322352D01*
X43473357Y-33322352D02*
X43442881Y-33352828D01*
X43442881Y-33352828D02*
X43412404Y-33413780D01*
X43412404Y-33413780D02*
X43412404Y-33474733D01*
X43412404Y-33474733D02*
X43442881Y-33566161D01*
X43442881Y-33566161D02*
X43808595Y-33931876D01*
X43808595Y-33931876D02*
X43412404Y-33931876D01*
X44524819Y-29320833D02*
X44048628Y-28987500D01*
X44524819Y-28749405D02*
X43524819Y-28749405D01*
X43524819Y-28749405D02*
X43524819Y-29130357D01*
X43524819Y-29130357D02*
X43572438Y-29225595D01*
X43572438Y-29225595D02*
X43620057Y-29273214D01*
X43620057Y-29273214D02*
X43715295Y-29320833D01*
X43715295Y-29320833D02*
X43858152Y-29320833D01*
X43858152Y-29320833D02*
X43953390Y-29273214D01*
X43953390Y-29273214D02*
X44001009Y-29225595D01*
X44001009Y-29225595D02*
X44048628Y-29130357D01*
X44048628Y-29130357D02*
X44048628Y-28749405D01*
X43620057Y-29701786D02*
X43572438Y-29749405D01*
X43572438Y-29749405D02*
X43524819Y-29844643D01*
X43524819Y-29844643D02*
X43524819Y-30082738D01*
X43524819Y-30082738D02*
X43572438Y-30177976D01*
X43572438Y-30177976D02*
X43620057Y-30225595D01*
X43620057Y-30225595D02*
X43715295Y-30273214D01*
X43715295Y-30273214D02*
X43810533Y-30273214D01*
X43810533Y-30273214D02*
X43953390Y-30225595D01*
X43953390Y-30225595D02*
X44524819Y-29654167D01*
X44524819Y-29654167D02*
X44524819Y-30273214D01*
X64492094Y-35506819D02*
X64492094Y-34506819D01*
X64492094Y-34506819D02*
X64253999Y-34506819D01*
X64253999Y-34506819D02*
X64111142Y-34554438D01*
X64111142Y-34554438D02*
X64015904Y-34649676D01*
X64015904Y-34649676D02*
X63968285Y-34744914D01*
X63968285Y-34744914D02*
X63920666Y-34935390D01*
X63920666Y-34935390D02*
X63920666Y-35078247D01*
X63920666Y-35078247D02*
X63968285Y-35268723D01*
X63968285Y-35268723D02*
X64015904Y-35363961D01*
X64015904Y-35363961D02*
X64111142Y-35459200D01*
X64111142Y-35459200D02*
X64253999Y-35506819D01*
X64253999Y-35506819D02*
X64492094Y-35506819D01*
X63539713Y-34602057D02*
X63492094Y-34554438D01*
X63492094Y-34554438D02*
X63396856Y-34506819D01*
X63396856Y-34506819D02*
X63158761Y-34506819D01*
X63158761Y-34506819D02*
X63063523Y-34554438D01*
X63063523Y-34554438D02*
X63015904Y-34602057D01*
X63015904Y-34602057D02*
X62968285Y-34697295D01*
X62968285Y-34697295D02*
X62968285Y-34792533D01*
X62968285Y-34792533D02*
X63015904Y-34935390D01*
X63015904Y-34935390D02*
X63587332Y-35506819D01*
X63587332Y-35506819D02*
X62968285Y-35506819D01*
X43666666Y-41253580D02*
X43714285Y-41301200D01*
X43714285Y-41301200D02*
X43857142Y-41348819D01*
X43857142Y-41348819D02*
X43952380Y-41348819D01*
X43952380Y-41348819D02*
X44095237Y-41301200D01*
X44095237Y-41301200D02*
X44190475Y-41205961D01*
X44190475Y-41205961D02*
X44238094Y-41110723D01*
X44238094Y-41110723D02*
X44285713Y-40920247D01*
X44285713Y-40920247D02*
X44285713Y-40777390D01*
X44285713Y-40777390D02*
X44238094Y-40586914D01*
X44238094Y-40586914D02*
X44190475Y-40491676D01*
X44190475Y-40491676D02*
X44095237Y-40396438D01*
X44095237Y-40396438D02*
X43952380Y-40348819D01*
X43952380Y-40348819D02*
X43857142Y-40348819D01*
X43857142Y-40348819D02*
X43714285Y-40396438D01*
X43714285Y-40396438D02*
X43666666Y-40444057D01*
X43285713Y-40444057D02*
X43238094Y-40396438D01*
X43238094Y-40396438D02*
X43142856Y-40348819D01*
X43142856Y-40348819D02*
X42904761Y-40348819D01*
X42904761Y-40348819D02*
X42809523Y-40396438D01*
X42809523Y-40396438D02*
X42761904Y-40444057D01*
X42761904Y-40444057D02*
X42714285Y-40539295D01*
X42714285Y-40539295D02*
X42714285Y-40634533D01*
X42714285Y-40634533D02*
X42761904Y-40777390D01*
X42761904Y-40777390D02*
X43333332Y-41348819D01*
X43333332Y-41348819D02*
X42714285Y-41348819D01*
X61230166Y-47062819D02*
X61563499Y-46586628D01*
X61801594Y-47062819D02*
X61801594Y-46062819D01*
X61801594Y-46062819D02*
X61420642Y-46062819D01*
X61420642Y-46062819D02*
X61325404Y-46110438D01*
X61325404Y-46110438D02*
X61277785Y-46158057D01*
X61277785Y-46158057D02*
X61230166Y-46253295D01*
X61230166Y-46253295D02*
X61230166Y-46396152D01*
X61230166Y-46396152D02*
X61277785Y-46491390D01*
X61277785Y-46491390D02*
X61325404Y-46539009D01*
X61325404Y-46539009D02*
X61420642Y-46586628D01*
X61420642Y-46586628D02*
X61801594Y-46586628D01*
X60896832Y-46062819D02*
X60277785Y-46062819D01*
X60277785Y-46062819D02*
X60611118Y-46443771D01*
X60611118Y-46443771D02*
X60468261Y-46443771D01*
X60468261Y-46443771D02*
X60373023Y-46491390D01*
X60373023Y-46491390D02*
X60325404Y-46539009D01*
X60325404Y-46539009D02*
X60277785Y-46634247D01*
X60277785Y-46634247D02*
X60277785Y-46872342D01*
X60277785Y-46872342D02*
X60325404Y-46967580D01*
X60325404Y-46967580D02*
X60373023Y-47015200D01*
X60373023Y-47015200D02*
X60468261Y-47062819D01*
X60468261Y-47062819D02*
X60753975Y-47062819D01*
X60753975Y-47062819D02*
X60849213Y-47015200D01*
X60849213Y-47015200D02*
X60896832Y-46967580D01*
D11*
%TO.C,C1*%
X39885252Y-35787000D02*
X39362748Y-35787000D01*
X39885252Y-34317000D02*
X39362748Y-34317000D01*
%TO.C,D1*%
X58092000Y-31512000D02*
X62102000Y-31512000D01*
X58092000Y-33512000D02*
X58092000Y-31512000D01*
X58092000Y-33512000D02*
X62102000Y-33512000D01*
%TO.C,R1*%
X42645000Y-29258306D02*
X42645000Y-29712434D01*
X41175000Y-29258306D02*
X41175000Y-29712434D01*
D12*
%TO.C,U2*%
X45422500Y-36925000D02*
X44867500Y-36925000D01*
X45422500Y-36870000D02*
X45422500Y-36925000D01*
X45422500Y-34425000D02*
X45422500Y-34480000D01*
X45422500Y-34425000D02*
X44867500Y-34425000D01*
X42977500Y-36925000D02*
X42422500Y-36925000D01*
X42977500Y-34425000D02*
X42422500Y-34425000D01*
X42422500Y-36870000D02*
X42422500Y-36925000D01*
X42422500Y-34425000D02*
X42422500Y-34480000D01*
D10*
X45997500Y-34775000D02*
G75*
G03*
X45847500Y-34775000I-75000J0D01*
G01*
X45847500Y-34775000D02*
G75*
G03*
X45997500Y-34775000I75000J0D01*
G01*
D11*
%TO.C,R2*%
X46455000Y-29260436D02*
X46455000Y-29714564D01*
X44985000Y-29260436D02*
X44985000Y-29714564D01*
%TO.C,D2*%
X58092000Y-34052000D02*
X62102000Y-34052000D01*
X58092000Y-36052000D02*
X58092000Y-34052000D01*
X58092000Y-36052000D02*
X62102000Y-36052000D01*
%TO.C,C2*%
X43761252Y-39851000D02*
X43238748Y-39851000D01*
X43761252Y-38381000D02*
X43238748Y-38381000D01*
%TO.C,R3*%
X60836436Y-44223000D02*
X61290564Y-44223000D01*
X60836436Y-45693000D02*
X61290564Y-45693000D01*
%TD*%
M02*
